<?xml version="1.0" encoding="UTF-8"?>
<svg version="1.1" xmlns="http://www.w3.org/2000/svg" width="666" height="666">
<path d="M0 0 C1.25018921 0.00507568 1.25018921 0.00507568 2.52563477 0.01025391 C8.27271995 0.0569561 14.01007076 0.20906777 19.75 0.5 C20.45278076 0.53077637 21.15556152 0.56155273 21.87963867 0.59326172 C25.42922909 0.80300827 28.39699962 0.98834487 31.3125 3.125 C33.31864001 6.08644478 33.52443405 8.54269191 33.625 12.0625 C34.04519932 17.89860165 35.88448633 22.61469311 38.125 27.98046875 C39.22053681 30.88147906 39.80498621 33.44516574 40.25 36.5 C41.00104411 41.05044371 42.80949645 43.27140634 45.98046875 46.51953125 C47.92853938 48.86749908 48.16696553 51.14154328 48.3125 54.125 C47.09433594 54.80755859 47.09433594 54.80755859 45.8515625 55.50390625 C42.10335065 59.37321417 42.64274456 62.86713966 42.6875 68.0625 C42.6875 79.05030488 42.6875 79.05030488 39.3125 83.125 C36.55650748 84.50299626 33.93625564 84.49511229 30.875 84.8125 C25.70899411 85.45826592 25.70899411 85.45826592 21.9375 88.8125 C21.18199738 92.81666389 21.14084851 95.19652147 22.3125 99.125 C23.72448487 100.90367945 25.25840793 102.51230956 26.8203125 104.16015625 C29.07629828 107.13073438 29.80344425 110.30556473 30.671875 113.890625 C31.26322951 116.38031512 31.26322951 116.38031512 33.3125 119.125 C39.55983624 118.61777378 44.48238652 116.52009135 50.125 113.875 C51.00921631 113.46894531 51.89343262 113.06289062 52.80444336 112.64453125 C58.10006306 110.2000236 63.36135669 107.69449236 68.53515625 105 C70.3125 104.125 70.3125 104.125 73.3125 103.125 C74.09665814 100.70693061 74.71309353 98.41102107 75.25 95.9375 C76.41678271 90.57448528 77.75767954 86.49068279 81.3125 82.125 C85.98633984 79.37771522 92.03094272 78.18186477 97.3125 79.125 C101.97842016 81.67004736 106.35605221 84.65524922 107.9375 89.9375 C108.77485181 95.42798404 107.91133103 100.99717722 106.875 106.41015625 C104.93483872 117.86923381 112.26042344 126.42638785 118.55859375 135.29296875 C119.47564253 136.57097314 120.39361317 137.84831653 121.3125 139.125 C122.26214518 140.45412251 123.21138675 141.78353351 124.16015625 143.11328125 C124.87042969 144.10714844 125.58070313 145.10101563 126.3125 146.125 C130.79696185 144.75474777 132.73873768 143.02715578 135.3125 139.125 C139.13308741 131.66575791 141.65890754 124.61198471 141.3125 116.125 C140.673125 115.8775 140.03375 115.63 139.375 115.375 C138.364375 114.9625 137.35375 114.55 136.3125 114.125 C135.58804687 113.83367187 134.86359375 113.54234375 134.1171875 113.2421875 C125.61069859 109.67676145 125.61069859 109.67676145 123.3125 106.125 C123.39457842 102.51354958 124.50585455 99.56536906 125.8125 96.25 C127.69370545 91.42710563 128.99021759 86.55348804 127.5625 81.4375 C127.3125 79.125 127.3125 79.125 129.25 76.5 C132.02429422 74.34850652 133.02292209 73.83895243 136.1875 73 C140.23135682 71.66948888 141.34901528 69.80197998 143.375 66.125 C146.43398232 60.82653179 149.95592271 57.57211002 154.8125 54 C155.44164307 53.52691406 156.07078613 53.05382813 156.71899414 52.56640625 C164.23315267 47.2588407 171.65307836 47.85930083 180.45703125 49.27734375 C191.87937884 51.78864003 201.95925481 58.57277457 208.3125 68.4375 C210.43412873 72.06931585 211.46166421 74.95643997 211.1640625 79.1796875 C211.11185547 80.34951172 211.11185547 80.34951172 211.05859375 81.54296875 C210.97818336 83.17452141 210.87417831 84.80509007 210.74609375 86.43359375 C210.66264352 88.84570285 210.67712934 90.79279624 211.3125 93.125 C212.97125539 94.83680389 214.57258159 95.9196216 216.65405273 97.07128906 C218.3125 98.125 218.3125 98.125 219.75 101 C220.98762916 107.87571758 220.4570971 113.85936084 217.3125 120.125 C214.08023503 123.97702079 209.75747991 125.94979707 205.3125 128.125 C204.52875 128.82625 203.745 129.5275 202.9375 130.25 C199.5251223 132.68741265 196.42655576 133.31235738 192.3125 133.125 C187.69767365 131.83890085 185.88239205 131.06256435 183.375 126.9375 C183.024375 126.009375 182.67375 125.08125 182.3125 124.125 C178.28383314 127.83561421 175.6247901 130.61927866 175.12548828 136.22436523 C175.04241177 138.73652666 175.03640382 141.23661127 175.0625 143.75 C175.06636719 144.64936279 175.07023437 145.54872559 175.07421875 146.4753418 C175.14572661 151.96803908 175.68328101 157.05395687 176.85546875 162.42578125 C178.36346782 171.33199798 177.79062857 179.99550397 175.03125 188.5546875 C174.06640004 192.00507484 173.90462447 195.36369652 173.81640625 198.93359375 C173.3125 201.125 173.3125 201.125 171.421875 202.9296875 C168.61386784 205.85209496 167.97925793 208.99733593 167 212.8125 C164.01613655 223.23663107 158.69861762 230.4418444 149.3125 236.125 C148.405 236.41375 147.4975 236.7025 146.5625 237 C142.82020316 238.87114842 141.85977268 242.39179316 140.3125 246.125 C139.84263672 247.14400391 139.84263672 247.14400391 139.36328125 248.18359375 C136.92662668 253.83971952 137.08811397 257.75136982 139.22265625 263.6328125 C141.37382436 268.98521043 143.81127687 274.18298647 146.32128906 279.37329102 C151.81638928 290.79001105 155.19381216 301.72379983 157.10107422 314.24169922 C158.86275051 325.28668433 162.26381432 336.13172525 167.3125 346.125 C167.78042969 347.094375 168.24835938 348.06375 168.73046875 349.0625 C172.34180884 356.19940012 176.50861531 362.29335904 181.58032227 368.45581055 C185.16491228 372.81211404 185.16491228 372.81211404 186.38671875 375.40234375 C187.61392866 377.68588624 189.0032385 378.02637746 191.3125 379.125 C193.09375 380.96484375 193.09375 380.96484375 194.8125 383.0625 C196.63246437 385.27541123 198.21567584 387.05391607 200.53125 388.75390625 C201.1190625 389.20636719 201.706875 389.65882813 202.3125 390.125 C202.3125 390.785 202.3125 391.445 202.3125 392.125 C202.90933594 392.39183594 203.50617188 392.65867187 204.12109375 392.93359375 C206.35824324 394.14986932 207.65670067 395.32857259 209.375 397.1875 C225.91628852 414.18826875 247.93713267 427.1530636 269.3125 437.125 C270.14910156 437.52074219 270.98570312 437.91648437 271.84765625 438.32421875 C273.98605175 439.30609545 276.13671178 440.2290872 278.3125 441.125 C279.30507813 441.53492188 280.29765625 441.94484375 281.3203125 442.3671875 C286.78060945 444.54872458 292.06258803 446.37317415 297.8125 447.625 C302.82768354 448.78438853 305.24216403 449.99592749 308.3125 454.125 C310.9917258 459.4834516 310.07188354 468.37640201 308.51171875 474.0234375 C304.09320726 483.65002266 296.97106185 489.50873985 287.625 493.9375 C280.91507145 497.14609714 278.47028621 500.2851845 275.60546875 507.29296875 C271.7929785 515.64358938 262.44588634 519.8738348 254.3125 523.125 C249.75806184 524.33301408 245.8929844 524.13852056 241.3125 523.125 C241.55371582 523.76824219 241.79493164 524.41148437 242.04345703 525.07421875 C242.76519023 526.99884061 243.48686468 528.92348451 244.20849609 530.84814453 C245.03131068 533.04198985 245.8545565 535.23567348 246.67822266 537.42919922 C248.50889846 542.30597006 250.33783413 547.18315494 252.140625 552.0703125 C252.40601074 552.78703125 252.67139648 553.50375 252.94482422 554.2421875 C253.63998713 556.12154969 254.33183439 558.00213739 255.0234375 559.8828125 C257.50992024 566.13669332 259.15078559 569.99009267 265.3125 573.125 C267.30394373 573.63856848 269.30522615 574.11478092 271.3125 574.5625 C276.7181356 575.80840858 279.58106004 577.01084825 283.3125 581.125 C284.94515518 583.78562325 286.07992929 586.24155432 286.875 589.26171875 C288.4929045 595.21762969 290.75602742 597.63538284 295.5625 601.42578125 C297.3125 603.125 297.3125 603.125 298.4375 606.9375 C298.3125 610.125 298.3125 610.125 296.3125 612.125 C292.26537058 612.03506379 290.65307205 611.43389093 287.625 608.6875 C286.861875 607.841875 286.09875 606.99625 285.3125 606.125 C284.3225 605.465 283.3325 604.805 282.3125 604.125 C281.74269119 609.82308814 282.76450976 613.75984246 284.8125 619.125 C287.43865884 626.14305411 288.84283391 631.05330581 285.8125 638.1875 C283.21002891 642.85178797 279.59071455 646.00711302 275.3125 649.125 C274.71695312 649.56199219 274.12140625 649.99898437 273.5078125 650.44921875 C267.27266093 654.26256252 260.38311561 653.48250304 253.3125 653.125 C251.62827627 646.69432759 253.85653213 643.62094492 257.0625 638.125 C258.56631636 634.51584074 258.44276927 632.83588405 257.3125 629.125 C255.95670707 626.86003946 255.95670707 626.86003946 254.1875 624.75 C249.30528917 618.08428766 246.40732217 610.73231692 243.3125 603.125 C243.01843262 602.4026416 242.72436523 601.6802832 242.42138672 600.93603516 C241.8266907 599.47414177 241.23204529 598.0122278 240.63745117 596.55029297 C230.79950763 572.43582888 215.7613748 551.5738748 197.3125 533.125 C191.5400639 532.44588987 187.80128095 533.63999167 183.3125 537.125 C181.95422029 538.77139965 180.61995749 540.43795807 179.3125 542.125 C166.78706001 551.58866577 152.39149106 551.78393965 137.3125 551.125 C136.3225 550.795 135.3325 550.465 134.3125 550.125 C129.33685389 549.67926504 124.68893037 550.17385998 119.8125 551.1875 C113.48807491 552.42758335 108.14253471 552.45338364 102.25 549.6875 C101.610625 549.171875 100.97125 548.65625 100.3125 548.125 C100.3125 547.465 100.3125 546.805 100.3125 546.125 C99.6525 546.125 98.9925 546.125 98.3125 546.125 C101.02088562 569.52640207 106.96353751 584.86373191 125.59326172 599.77539062 C133.24287677 605.78037103 141.07088392 609.4784937 150.20800781 612.6418457 C157.38741851 615.20581019 157.38741851 615.20581019 159.3125 619.125 C159.5 622.375 159.5 622.375 159.3125 625.125 C149.53888689 630.47721671 135.66205444 631.0582367 124.81982422 628.54785156 C121.09490981 627.41216045 117.50831981 626.02786553 113.9140625 624.53515625 C110.64667176 623.25584165 107.78068786 622.54912824 104.3125 622.125 C103.99667969 622.77984375 103.68085938 623.4346875 103.35546875 624.109375 C100.99635213 626.43691645 100.47848108 626.42697826 97.30078125 626.515625 C95.74170861 626.48908759 94.18288169 626.44145599 92.625 626.375 C91.82771484 626.35695313 91.03042969 626.33890625 90.20898438 626.3203125 C88.24297551 626.27322247 86.27758506 626.20147899 84.3125 626.125 C83.3225 631.075 82.3325 636.025 81.3125 641.125 C79.3325 641.125 77.3525 641.125 75.3125 641.125 C74.6525 640.465 73.9925 639.805 73.3125 639.125 C73.3359375 635.8671875 73.3359375 635.8671875 73.6875 632 C73.79835938 630.71867188 73.90921875 629.43734375 74.0234375 628.1171875 C74.11882812 627.12976563 74.21421875 626.14234375 74.3125 625.125 C68.26156579 629.73688682 63.76349891 635.10455258 59.34643555 641.23681641 C58.69155151 642.11732666 58.69155151 642.11732666 58.0234375 643.015625 C57.64493652 643.54188477 57.26643555 644.06814453 56.87646484 644.61035156 C52.66603035 648.68801869 48.20145278 649.50684667 42.5234375 649.5234375 C41.25242187 649.52730469 39.98140625 649.53117188 38.671875 649.53515625 C37.35703125 649.52355469 36.0421875 649.51195312 34.6875 649.5 C33.35155391 649.51069535 32.01561554 649.5224051 30.6796875 649.53515625 C29.41125 649.53128906 28.1428125 649.52742187 26.8359375 649.5234375 C25.68013184 649.52005371 24.52432617 649.51666992 23.33349609 649.51318359 C20.06912344 649.09372727 18.69581996 648.33291463 16.3125 646.125 C16.92489046 639.6336611 16.92489046 639.6336611 18.55078125 637.5 C20.67710359 635.84043135 22.61725996 635.23825867 25.1875 634.4375 C30.939166 632.1817815 32.79621448 629.63802685 35.3125 624.125 C35.86550781 622.95324219 36.41851562 621.78148437 36.98828125 620.57421875 C43.2434352 606.98229399 48.49745973 593.55254961 48.41015625 578.44921875 C48.4087413 577.5240596 48.40732635 576.59890045 48.40586853 575.64570618 C48.40028715 572.70127073 48.38773805 569.75691233 48.375 566.8125 C48.36998259 564.81185006 48.36542011 562.81119892 48.36132812 560.81054688 C48.35032381 555.91533506 48.33307198 551.02018058 48.3125 546.125 C47.71824219 546.14071045 47.12398437 546.1564209 46.51171875 546.17260742 C43.77874546 546.23556569 41.04592545 546.27418095 38.3125 546.3125 C36.91064453 546.35020508 36.91064453 546.35020508 35.48046875 546.38867188 C26.9314831 546.47834655 20.41886561 544.75183531 13.953125 538.94140625 C12.11786041 536.90950617 10.83079177 534.79155066 9.4375 532.4375 C6.78902819 528.29839615 4.73278522 526.86532675 0.0078125 525.6640625 C-0.88164062 525.48617187 -1.77109375 525.30828125 -2.6875 525.125 C-4.39292969 524.76535156 -4.39292969 524.76535156 -6.1328125 524.3984375 C-7.34710938 524.14320313 -8.56140625 523.88796875 -9.8125 523.625 C-18.19203334 521.86278054 -26.44566175 519.47718871 -31.6875 512.125 C-32.27484808 507.95531406 -32.05522703 505.78639793 -30 502.08984375 C-28.8553125 500.59130859 -28.8553125 500.59130859 -27.6875 499.0625 C-26.8460234 497.91324661 -26.00888782 496.76080406 -25.17578125 495.60546875 C-24.75377441 495.0232959 -24.33176758 494.44112305 -23.89697266 493.84130859 C-12.41823062 477.55233877 -4.82594011 458.0949501 3.21923828 439.97265625 C5.3994208 435.08102834 7.69204271 430.27062046 10.125 425.5 C15.92756905 414.85507853 15.92756905 414.85507853 17.3125 403.125 C16.27136059 400.51936768 15.20362163 398.11202464 13.9375 395.625 C11.73013628 391.18335348 9.76799895 386.88845112 8.3125 382.125 C6.90981116 384.81037363 5.78916795 387.45509646 4.83203125 390.328125 C4.55423828 391.14539063 4.27644531 391.96265625 3.99023438 392.8046875 C3.42957154 394.47022314 2.8720773 396.13683012 2.31835938 397.8046875 C-0.02731112 404.67681059 -2.88887882 411.2845975 -5.8293457 417.91650391 C-8.87948312 424.79867659 -11.78657545 431.74139626 -14.6875 438.6875 C-15.16222748 439.82378845 -15.16222748 439.82378845 -15.64654541 440.98303223 C-25.65258343 464.98683578 -34.84974067 489.32015066 -43.89990234 513.69824219 C-45.4475108 517.86262958 -47.02871852 522.00740136 -48.6875 526.12890625 C-56.08163016 544.50573179 -61.97919644 563.23094469 -67.09375 582.359375 C-67.31200439 583.16858398 -67.53025879 583.97779297 -67.75512695 584.81152344 C-68.15031889 586.28645012 -68.53771666 587.76350283 -68.91479492 589.24316406 C-70.24741744 594.24734728 -72.26092929 598.54772135 -74.6875 603.125 C-79.61253607 603.47678829 -82.37546574 602.42595946 -86.6875 600.125 C-86.41035156 601.22199219 -86.13320312 602.31898438 -85.84765625 603.44921875 C-85.48170763 604.90362993 -85.11582573 606.3580579 -84.75 607.8125 C-84.56759766 608.53373047 -84.38519531 609.25496094 -84.19726562 609.99804688 C-84.02001953 610.70380859 -83.84277344 611.40957031 -83.66015625 612.13671875 C-83.48750244 612.8229834 -83.31484863 613.50924805 -83.13696289 614.21630859 C-82.75818924 615.82481071 -82.46300761 617.45266202 -82.1875 619.08203125 C-82.0225 619.75621094 -81.8575 620.43039062 -81.6875 621.125 C-79.52128132 622.2275173 -79.52128132 622.2275173 -76.6875 623.125 C-75.27222035 623.90313268 -73.87713339 624.71869281 -72.5 625.5625 C-71.82582031 625.97371094 -71.15164062 626.38492188 -70.45703125 626.80859375 C-68.6875 628.125 -68.6875 628.125 -66.6875 631.125 C-66.25 634.625 -66.25 634.625 -66.6875 638.125 C-71.91688183 642.16721181 -77.10820556 641.6047465 -83.4375 641.5625 C-84.48421875 641.58248047 -85.5309375 641.60246094 -86.609375 641.62304688 C-94.89304521 641.61786958 -101.17593099 640.10219982 -107.5625 634.6875 C-111.24683186 630.24462923 -112.96265664 626.61818981 -114 620.9375 C-114.67854111 617.79621573 -114.67854111 617.79621573 -115.6875 615.125 C-118.39357887 613.66636234 -118.39357887 613.66636234 -121.6875 613.125 C-123.8203125 611.7265625 -123.8203125 611.7265625 -126 609.9375 C-127.01513672 609.11185547 -127.01513672 609.11185547 -128.05078125 608.26953125 C-131.11630095 604.25289565 -130.88079856 599.78069438 -130.26953125 594.9609375 C-130.02701342 593.47161224 -129.76992767 591.9846022 -129.5 590.5 C-129.35981445 589.70513184 -129.21962891 588.91026367 -129.07519531 588.09130859 C-127.81093452 581.23746587 -125.98071886 574.70805729 -123.6875 568.125 C-123.41856934 567.34801758 -123.14963867 566.57103516 -122.87255859 565.77050781 C-121.3870353 561.48224845 -119.88724277 557.19939802 -118.37109375 552.921875 C-115.80543702 545.64750084 -113.40150075 538.34511007 -111.25 530.9375 C-110.92805664 529.83631836 -110.92805664 529.83631836 -110.59960938 528.71289062 C-108.94496388 523.04192463 -107.32396683 517.36150894 -105.70703125 511.6796875 C-104.4109014 507.16061408 -103.08491136 502.65057375 -101.75170898 498.14233398 C-100.49246995 493.87945756 -99.25012247 489.61221226 -98.0234375 485.33984375 C-85.62924207 442.2394947 -85.62924207 442.2394947 -74.83813477 427.72265625 C-72.87374293 424.99509839 -71.27552877 422.07942822 -69.6875 419.125 C-69.29836426 418.44236084 -68.90922852 417.75972168 -68.50830078 417.05639648 C-64.7454088 410.10437642 -63.07294856 403.22100802 -61.5625 395.5 C-61.32402344 394.34371094 -61.08554688 393.18742187 -60.83984375 391.99609375 C-59.58203435 385.84302614 -58.41379549 379.67506104 -57.26953125 373.5 C-55.32026416 362.98751547 -53.11678616 352.52694608 -50.94067383 342.05957031 C-50.40281827 339.46973791 -49.86731191 336.87942811 -49.33203125 334.2890625 C-49.16645218 333.49650055 -49.00087311 332.7039386 -48.83027649 331.88735962 C-47.99036317 328.03843257 -47.99036317 328.03843257 -47.6875 324.125 C-48.47125 323.856875 -49.255 323.58875 -50.0625 323.3125 C-52.6875 322.125 -52.6875 322.125 -54.6875 319.125 C-54.31108507 310.00344272 -51.57330537 300.85228678 -49.33837891 292.02172852 C-48.81097995 289.93147553 -48.29759502 287.83810517 -47.78515625 285.74414062 C-45.93334816 278.28675812 -43.73906198 271.18828363 -40.6875 264.125 C-39.84666863 262.04885029 -39.01104244 259.97058749 -38.1796875 257.890625 C-37.75042969 256.82199219 -37.32117188 255.75335938 -36.87890625 254.65234375 C-36.44449219 253.57082031 -36.01007813 252.48929688 -35.5625 251.375 C-35.12035156 250.27800781 -34.67820312 249.18101562 -34.22265625 248.05078125 C-33.79597656 246.98730469 -33.36929688 245.92382812 -32.9296875 244.828125 C-32.35516846 243.39968262 -32.35516846 243.39968262 -31.76904297 241.94238281 C-24.93592447 224.14234049 -30.27214608 207.87499981 -35.12335205 190.1932373 C-36.76789483 184.16413674 -38.35677138 178.11988792 -39.95852661 172.07931519 C-40.55139739 169.85416999 -41.15164626 167.63113356 -41.75366211 165.40844727 C-42.12487831 164.02621546 -42.49605531 162.64397312 -42.8671875 161.26171875 C-43.19444824 160.05217529 -43.52170898 158.84263184 -43.85888672 157.59643555 C-49.28212452 134.87604122 -43.21681425 119.02373912 -31.78125 99.578125 C-29.38572771 95.46276841 -27.30882136 91.32132734 -25.45605469 86.9362793 C-24.84359543 85.49287547 -24.15298951 84.08270454 -23.4375 82.6875 C-21.95780224 77.63186598 -21.1400607 73.18217531 -23.62939453 68.26416016 C-25.30072521 65.45569211 -27.09450008 62.73813968 -28.89697266 60.01269531 C-35.77619935 49.57202282 -37.59519008 38.85698417 -35.1484375 26.375 C-32.13418813 16.57040863 -24.69575518 7.83380801 -15.875 2.625 C-10.52444604 0.10709225 -5.86369297 -0.03400602 0 0 Z M86.3125 120.125 C86.3125 124.745 86.3125 129.365 86.3125 134.125 C85.095625 134.516875 83.87875 134.90875 82.625 135.3125 C72.34952363 138.76454387 62.69352534 142.65430186 53.3125 148.125 C53.60334771 150.56023994 53.60334771 150.56023994 54.3125 153.125 C59.33146871 156.77515906 65.10510211 158.6750925 70.89453125 160.8203125 C74.21458202 162.08762331 77.4404258 163.49526127 80.6875 164.9375 C85.14264111 166.77677844 88.44902222 168.04263732 93.3125 167.125 C96.55078133 165.77880776 99.58681656 164.34766032 102.3125 162.125 C103.6597202 158.69420549 103.06817113 156.40479551 102.01953125 152.94140625 C101.72062988 151.93674316 101.42172852 150.93208008 101.11376953 149.89697266 C100.78747559 148.83784668 100.46118164 147.7787207 100.125 146.6875 C99.63942627 145.07174072 99.63942627 145.07174072 99.14404297 143.42333984 C98.20937181 140.32101713 97.26194356 137.22282712 96.3125 134.125 C95.8701386 132.65783973 95.42858027 131.19043677 94.98828125 129.72265625 C93.44789848 124.3090209 93.44789848 124.3090209 91.3125 119.125 C88.3870356 118.9013932 88.3870356 118.9013932 86.3125 120.125 Z M60.3125 191.125 C60.17771513 194.45554374 60.17771513 194.45554374 61.3125 198.125 C64.99215433 201.44356675 69.65684058 203.52461708 74.3125 205.125 C74.60812367 199.80329506 74.60812367 199.80329506 72.3125 195.125 C70.50633095 193.90633846 70.50633095 193.90633846 68.4375 192.9375 C67.42042969 192.42123047 67.42042969 192.42123047 66.3828125 191.89453125 C64.0557221 190.89272764 64.0557221 190.89272764 60.3125 191.125 Z M56.3125 235.125 C55.55294674 245.45371222 54.88984753 255.78465512 54.3125 266.125 C54.24933594 267.20507324 54.18617188 268.28514648 54.12109375 269.39794922 C53.40469325 283.08533181 55.43369134 294.71073085 59.58496094 307.75683594 C60.6372358 311.18202594 61.47978199 314.64051978 62.3125 318.125 C66.07934996 315.39134317 66.55251374 311.29743328 67.4375 307 C67.61071777 306.16815186 67.78393555 305.33630371 67.96240234 304.47924805 C69.66024631 295.55042252 69.8709251 286.64894335 70.09765625 277.5859375 C70.30019802 270.05870723 70.95205407 262.58594016 71.65283203 255.09106445 C72.14230547 249.73889994 72.40746424 244.49997593 72.3125 239.125 C71.1575 238.650625 70.0025 238.17625 68.8125 237.6875 C68.1628125 237.42066406 67.513125 237.15382812 66.84375 236.87890625 C63.35623706 235.84018712 59.92994494 235.51638322 56.3125 235.125 Z M76.3125 571.125 C74.74775874 574.25448252 75.08680049 577.56755602 75.0625 581 C75.0315625 582.08087891 75.0315625 582.08087891 75 583.18359375 C74.96481615 587.95980098 75.30391285 589.11355046 78.3125 593.125 C77.9825 585.865 77.6525 578.605 77.3125 571.125 C76.9825 571.125 76.6525 571.125 76.3125 571.125 Z " fill="#030303" transform="translate(249.6875,8.875)"/>
<path d="M0 0 C1.31849881 3.79424118 0.83370913 7.06382862 0.3125 11 C0.16425781 12.216875 0.01601563 13.43375 -0.13671875 14.6875 C-1.11695041 18.44875091 -2.30779793 19.33329226 -5 22 C-5.894039 24.58058577 -6.63664368 27.0543809 -7.3125 29.6875 C-10.29636345 40.11163107 -15.61388238 47.3168444 -25 53 C-26.36125 53.433125 -26.36125 53.433125 -27.75 53.875 C-31.49229684 55.74614842 -32.45272732 59.26679316 -34 63 C-34.46986328 64.01900391 -34.46986328 64.01900391 -34.94921875 65.05859375 C-37.38587332 70.71471952 -37.22438603 74.62636982 -35.08984375 80.5078125 C-32.93867564 85.86021043 -30.50122313 91.05798647 -27.99121094 96.24829102 C-22.49611072 107.66501105 -19.11868784 118.59879983 -17.21142578 131.11669922 C-15.44974949 142.16168433 -12.04868568 153.00672525 -7 163 C-6.53207031 163.969375 -6.06414062 164.93875 -5.58203125 165.9375 C-1.97069116 173.07440012 2.19611531 179.16835904 7.26782227 185.33081055 C10.85241228 189.68711404 10.85241228 189.68711404 12.07421875 192.27734375 C13.30142866 194.56088624 14.6907385 194.90137746 17 196 C18.78125 197.83984375 18.78125 197.83984375 20.5 199.9375 C22.31996437 202.15041123 23.90317584 203.92891607 26.21875 205.62890625 C27.10046875 206.30759766 27.10046875 206.30759766 28 207 C28 207.66 28 208.32 28 209 C28.59683594 209.26683594 29.19367188 209.53367187 29.80859375 209.80859375 C32.04574324 211.02486932 33.34420067 212.20357259 35.0625 214.0625 C51.60378852 231.06326875 73.62463267 244.0280636 95 254 C95.83660156 254.39574219 96.67320312 254.79148437 97.53515625 255.19921875 C99.67355175 256.18109545 101.82421178 257.1040872 104 258 C105.48886719 258.61488281 105.48886719 258.61488281 107.0078125 259.2421875 C112.46810945 261.42372458 117.75008803 263.24817415 123.5 264.5 C128.51518354 265.65938853 130.92966403 266.87092749 134 271 C136.6792258 276.3584516 135.75938354 285.25140201 134.19921875 290.8984375 C129.78070726 300.52502266 122.65856185 306.38373985 113.3125 310.8125 C106.60257145 314.02109714 104.15778621 317.1601845 101.29296875 324.16796875 C97.4804785 332.51858938 88.13338634 336.7488348 80 340 C75.44556184 341.20801408 71.5804844 341.01352056 67 340 C67.24121582 340.64324219 67.48243164 341.28648437 67.73095703 341.94921875 C68.45269023 343.87384061 69.17436468 345.79848451 69.89599609 347.72314453 C70.71881068 349.91698985 71.5420565 352.11067348 72.36572266 354.30419922 C74.19639846 359.18097006 76.02533413 364.05815494 77.828125 368.9453125 C78.09351074 369.66203125 78.35889648 370.37875 78.63232422 371.1171875 C79.32748713 372.99654969 80.01933439 374.87713739 80.7109375 376.7578125 C83.19742024 383.01169332 84.83828559 386.86509267 91 390 C92.99144373 390.51356848 94.99272615 390.98978092 97 391.4375 C102.4056356 392.68340858 105.26856004 393.88584825 109 398 C110.63265518 400.66062325 111.76742929 403.11655432 112.5625 406.13671875 C114.1804045 412.09262969 116.44352742 414.51038284 121.25 418.30078125 C123 420 123 420 124.125 423.8125 C124 427 124 427 122 429 C117.95287058 428.91006379 116.34057205 428.30889093 113.3125 425.5625 C112.549375 424.716875 111.78625 423.87125 111 423 C110.01 422.34 109.02 421.68 108 421 C107.43019119 426.69808814 108.45200976 430.63484246 110.5 436 C113.12615884 443.01805411 114.53033391 447.92830581 111.5 455.0625 C107.56432724 462.11622336 100.57288793 467.33576437 93 470 C90 470.25 90 470.25 88 470 C90.60497292 468.26335138 93.05123606 467.00497041 95.875 465.6875 C101.55247375 462.87768766 105.48104429 459.27843356 109 454 C111.12535131 447.62394608 110.79056692 441.15638818 108 435.0625 C105.41252338 429.40467261 105.62154266 424.11839369 106 418 C109.48087843 419.21535755 111.68323414 420.36300255 114.125 423.125 C115.50518709 424.75580883 115.50518709 424.75580883 117 426 C117.99 426 118.98 426 120 426 C120.33 425.01 120.66 424.02 121 423 C120.18595703 422.29037109 120.18595703 422.29037109 119.35546875 421.56640625 C114.07094464 416.68179207 111.8447483 412.85737472 110 406 C108.06207062 401.33135196 106.38837468 398.59720134 102 396 C98.97740954 395.16369337 95.93541592 394.47084083 92.87890625 393.76953125 C87.31468176 392.2822148 84.11605742 389.61082136 81.03063965 384.84262085 C79.02587878 381.25842517 77.712479 377.40695304 76.328125 373.55078125 C76.00084412 372.65634811 75.67356323 371.76191498 75.33636475 370.84037781 C74.65028229 368.95999416 73.96807554 367.07819235 73.28955078 365.19506836 C72.2483871 362.30802758 71.19353056 359.42626655 70.13671875 356.54492188 C69.4705422 354.71383687 68.80514994 352.8824663 68.140625 351.05078125 C67.66728729 349.7570031 67.66728729 349.7570031 67.18438721 348.43708801 C66.89698669 347.63582993 66.60958618 346.83457184 66.31347656 346.0090332 C65.93186371 344.95363091 65.93186371 344.95363091 65.5425415 343.87690735 C65 342 65 342 65 339 C65.72703125 338.98582031 66.4540625 338.97164062 67.203125 338.95703125 C78.12720088 338.43883791 89.19228413 335.0723842 97 327 C98.66348335 324.44591325 99.85758759 321.81945131 101 319 C103.32792987 313.85915487 105.14889253 311.21925409 110.40234375 308.97265625 C111.23894531 308.67230469 112.07554687 308.37195313 112.9375 308.0625 C121.85100974 304.55704076 126.99643548 298.13642155 131.1796875 289.58984375 C132.16477828 286.47977144 132.37274432 283.76063878 132.4375 280.5 C132.47746094 279.3965625 132.51742187 278.293125 132.55859375 277.15625 C131.80059892 272.8733142 130.47046166 271.59049984 127 269 C124.1507224 267.85556048 121.22948812 267.16235175 118.25 266.4375 C92.42453776 259.37630019 67.91472203 244.52484329 47 228 C46.46874512 227.58443848 45.93749023 227.16887695 45.39013672 226.74072266 C36.619122 219.79485889 28.69365331 211.92154113 20.75 204.0625 C19.98817917 203.3151207 19.98817917 203.3151207 19.21096802 202.55264282 C-2.79114438 180.90815094 -15.62513204 155.81335842 -20.9375 125.375 C-22.91374182 114.3304783 -26.56359465 104.80880359 -31.609375 94.796875 C-32.06489746 93.87970703 -32.52041992 92.96253906 -32.98974609 92.01757812 C-33.88751713 90.22393475 -34.80597856 88.44044057 -35.74853516 86.66992188 C-39.25613713 79.71114049 -40.48738611 73.30116822 -38.34472656 65.66455078 C-37.49802392 63.50102578 -36.52301195 61.49057693 -35.4375 59.4375 C-34.95313477 58.39239258 -34.95313477 58.39239258 -34.45898438 57.32617188 C-32.50736944 53.48613715 -31.7013419 52.24546966 -27.484375 50.76953125 C-26.33453125 50.51558594 -25.1846875 50.26164062 -24 50 C-17.35839963 44.97637041 -12.10358435 38.09070902 -10 30 C-9.91166791 28.6669885 -9.82859743 27.33362089 -9.75 26 C-9.4182561 22.51005416 -8.49130451 21.17783023 -5.875 18.875 C-4.22572539 17.487064 -4.22572539 17.487064 -3 16 C-3.27395385 13.99100513 -3.61709538 11.99110401 -4 10 C-2.93607677 6.54354697 -1.51145833 3.28239449 0 0 Z " fill="#ECECEB" transform="translate(424,192)"/>
<path d="M0 0 C0.83345947 0.00338379 1.66691895 0.00676758 2.52563477 0.01025391 C8.27271995 0.0569561 14.01007076 0.20906777 19.75 0.5 C20.45278076 0.53077637 21.15556152 0.56155273 21.87963867 0.59326172 C25.42922909 0.80300827 28.39699962 0.98834487 31.3125 3.125 C33.31864001 6.08644478 33.52443405 8.54269191 33.625 12.0625 C34.04519932 17.89860165 35.88448633 22.61469311 38.125 27.98046875 C39.22053681 30.88147906 39.80498621 33.44516574 40.25 36.5 C41.00104411 41.05044371 42.80949645 43.27140634 45.98046875 46.51953125 C47.92853938 48.86749908 48.16696553 51.14154328 48.3125 54.125 C47.50039063 54.58003906 46.68828125 55.03507812 45.8515625 55.50390625 C42.10335065 59.37321417 42.64274456 62.86713966 42.6875 68.0625 C42.6875 79.05030488 42.6875 79.05030488 39.3125 83.125 C36.55650748 84.50299626 33.93625564 84.49511229 30.875 84.8125 C25.71989952 85.44215732 25.71989952 85.44215732 22 88.8125 C21.26464354 92.35558113 21.09597766 95.51629427 21.3125 99.125 C20.6525 98.795 19.9925 98.465 19.3125 98.125 C18.88972508 91.99476372 19.31454602 89.09215495 23.3125 84.125 C25.67643522 81.76106478 31.10509869 82.14111499 34.30859375 81.72265625 C37.41388987 81.39396505 37.41388987 81.39396505 39.3125 79.125 C39.51804192 76.52146902 39.38369472 74.40977889 38.75 71.875 C38.5334375 71.00875 38.5334375 71.00875 38.3125 70.125 C38.6425 69.795 38.9725 69.465 39.3125 69.125 C39.47578027 66.08617283 39.56731664 63.0501096 39.640625 60.0078125 C40.3125 57.125 40.3125 57.125 42.859375 55.2421875 C43.66890625 54.87351563 44.4784375 54.50484375 45.3125 54.125 C44.71036445 50.48744138 43.17324229 48.52088395 40.875 45.6875 C37.18783387 40.60923265 36.47732447 36.43761471 35.84375 30.2890625 C35.29151108 26.99999246 34.33196989 24.87782231 32.6875 22 C30.04608504 17.31609557 29.96324244 13.67140841 30.4296875 8.375 C30.39101563 7.6325 30.35234375 6.89 30.3125 6.125 C26.61319321 3.65879547 23.54420935 3.71816984 19.25 3.5625 C11.55099473 3.24424736 11.55099473 3.24424736 9.3125 2.125 C-2.68797112 0.99369067 -11.59926343 2.35500255 -21.25 10.2109375 C-23.58595335 12.40089377 -25.64892307 14.65790588 -27.6875 17.125 C-28.23664063 17.75535156 -28.78578125 18.38570312 -29.3515625 19.03515625 C-34.58690749 26.39096221 -33.76080086 36.5440785 -32.6875 45.125 C-30.59541028 54.01868539 -26.12664154 60.91667533 -20.6875 68.125 C-18.52161404 72.45677191 -19.08542516 78.02506001 -20.39013672 82.57568359 C-21.37701021 85.04210624 -22.46431608 87.42302415 -23.625 89.8125 C-24.0274292 90.67464111 -24.4298584 91.53678223 -24.84448242 92.42504883 C-28.06855212 99.18939627 -31.79319864 105.56674772 -35.7421875 111.92578125 C-44.15583018 125.76267553 -45.40083402 139.38097382 -41.72265625 155.0859375 C-40.0617807 161.66676516 -38.25593956 168.20913053 -36.4453125 174.75 C-34.57032119 181.52864761 -32.73479009 188.31766085 -30.91513062 195.11132812 C-30.55775373 196.44367213 -30.19923038 197.7757092 -29.83950806 199.10742188 C-29.33169709 200.98755017 -28.82789223 202.86875907 -28.32421875 204.75 C-28.03248779 205.83539063 -27.74075684 206.92078125 -27.44018555 208.0390625 C-26.10245242 213.52363814 -25.50835181 218.7304722 -25.4375 224.375 C-25.41171875 225.59703125 -25.3859375 226.8190625 -25.359375 228.078125 C-25.77043876 237.33050423 -30.18037296 245.98174035 -33.75704956 254.3571167 C-42.19571318 274.18875954 -48.48971227 294.22343883 -51.578125 315.6328125 C-51.69704102 316.42574707 -51.81595703 317.21868164 -51.93847656 318.03564453 C-51.89591905 320.33361058 -51.89591905 320.33361058 -49.69433594 321.90576172 C-48.70095215 322.50928467 -48.70095215 322.50928467 -47.6875 323.125 C-50.0625 322.8125 -50.0625 322.8125 -52.6875 322.125 C-56.03341986 317.10612021 -53.8200662 311.81486644 -52.6875 306.125 C-51.64809654 301.40275002 -50.52467635 296.70898284 -49.33837891 292.02172852 C-48.81097995 289.93147553 -48.29759502 287.83810517 -47.78515625 285.74414062 C-45.93334816 278.28675812 -43.73906198 271.18828363 -40.6875 264.125 C-39.84666863 262.04885029 -39.01104244 259.97058749 -38.1796875 257.890625 C-37.75042969 256.82199219 -37.32117188 255.75335938 -36.87890625 254.65234375 C-36.44449219 253.57082031 -36.01007813 252.48929688 -35.5625 251.375 C-35.12035156 250.27800781 -34.67820313 249.18101562 -34.22265625 248.05078125 C-33.79597656 246.98730469 -33.36929688 245.92382812 -32.9296875 244.828125 C-32.5466748 243.87583008 -32.16366211 242.92353516 -31.76904297 241.94238281 C-24.93592447 224.14234049 -30.27214608 207.87499981 -35.12335205 190.1932373 C-36.76789483 184.16413674 -38.35677138 178.11988792 -39.95852661 172.07931519 C-40.55139739 169.85416999 -41.15164626 167.63113356 -41.75366211 165.40844727 C-42.12487831 164.02621546 -42.49605531 162.64397312 -42.8671875 161.26171875 C-43.19444824 160.05217529 -43.52170898 158.84263184 -43.85888672 157.59643555 C-49.28212452 134.87604122 -43.21681425 119.02373912 -31.78125 99.578125 C-29.38572771 95.46276841 -27.30882136 91.32132734 -25.45605469 86.9362793 C-24.84359543 85.49287547 -24.15298951 84.08270454 -23.4375 82.6875 C-21.95780224 77.63186598 -21.1400607 73.18217531 -23.62939453 68.26416016 C-25.30072521 65.45569211 -27.09450008 62.73813968 -28.89697266 60.01269531 C-35.77619935 49.57202282 -37.59519008 38.85698417 -35.1484375 26.375 C-32.13418813 16.57040863 -24.69575518 7.83380801 -15.875 2.625 C-10.52444604 0.10709225 -5.86369297 -0.03400602 0 0 Z " fill="#E9E9E8" transform="translate(249.6875,8.875)"/>
<path d="M0 0 C0.66 0 1.32 0 2 0 C2.18779365 4.50704756 1.7624303 8.07930698 0.61758423 12.4670105 C-0.58869933 17.4145196 -1.49869208 22.4264343 -2.4661808 27.42509651 C-3.01255975 30.24237746 -3.56652048 33.05815202 -4.11995983 35.874053 C-5.14577289 41.09377384 -6.16874252 46.31400571 -7.1784668 51.53686523 C-7.8853763 55.19181417 -8.60220365 58.84470494 -9.32512474 62.49651909 C-9.59531497 63.87059093 -9.8620618 65.24534551 -10.12493324 66.62083626 C-12.48081607 78.93333919 -15.04790856 92.28559104 -22.8125 102.4375 C-35.30027594 120.03667114 -41.6690386 140.00229282 -47.34033203 160.61279297 C-48.224164 163.81120488 -49.14261223 166.99929458 -50.0625 170.1875 C-51.10728956 173.83781415 -52.13829412 177.49124656 -53.14453125 181.15234375 C-56.26065558 192.48791948 -59.56959446 203.75563402 -63 215 C-63.2165625 215.71430176 -63.433125 216.42860352 -63.65625 217.16455078 C-65.97490931 224.79982342 -68.44417339 232.3587718 -71.125 239.875 C-74.22702662 248.6003618 -76.92658301 257.14625519 -78.6875 266.25 C-78.81922607 266.92426025 -78.95095215 267.59852051 -79.08666992 268.29321289 C-80.55614006 276.03195972 -80.55614006 276.03195972 -78.1875 283.25 C-75.36974939 286.79231505 -73.79812857 287.86472397 -69.3125 288.625 C-68.219375 288.74875 -67.12625 288.8725 -66 289 C-65.68546875 290.08539062 -65.3709375 291.17078125 -65.046875 292.2890625 C-64.61511115 293.73453277 -64.18278975 295.17983657 -63.75 296.625 C-63.54503906 297.33785156 -63.34007812 298.05070312 -63.12890625 298.78515625 C-61.53814286 304.03949592 -59.63823396 308.84573737 -55.25390625 312.42578125 C-48.737866 315.84181159 -43.19957522 316.18165619 -36 316.1875 C-35.2059375 316.19974609 -34.411875 316.21199219 -33.59375 316.22460938 C-29.2705262 316.23541743 -25.93985282 316.00964267 -22 314 C-21.32987578 311.2140814 -21.32987578 311.2140814 -22 308 C-23.77833435 306.48708869 -25.59767352 305.45179144 -27.6640625 304.37109375 C-33.2331624 301.10227425 -35.98401306 299.01129584 -37.8984375 292.76953125 C-38.41290043 290.78950855 -38.90457648 288.80344544 -39.375 286.8125 C-39.63410156 285.80251953 -39.89320313 284.79253906 -40.16015625 283.75195312 C-42 276.47532242 -42 276.47532242 -42 274 C-41.12988281 274.30744141 -41.12988281 274.30744141 -40.2421875 274.62109375 C-35.8378016 276.14009813 -31.64322223 277.4047151 -27 278 C-26.7525 276.845 -26.505 275.69 -26.25 274.5 C-25.8361517 272.66602841 -25.41906051 270.83278763 -25 269 C-24.75507813 267.90558594 -24.51015625 266.81117188 -24.2578125 265.68359375 C-21.54268935 254.16234108 -17.79306106 243.04696863 -13.96533203 231.85351562 C-13.10842596 229.32050647 -12.27788688 226.78172885 -11.46484375 224.234375 C-7.61489176 212.22316114 -2.89831617 200.61918553 2 189 C3.17295455 192.51886365 2.81070558 193.15343973 1.48046875 196.48828125 C0.94365479 197.8657251 0.94365479 197.8657251 0.39599609 199.27099609 C-0.00280762 200.27469238 -0.40161133 201.27838867 -0.8125 202.3125 C-8.54374045 222.38063067 -15.49373479 242.69086555 -20.66845703 263.57763672 C-22.17422211 269.52825804 -24.03295935 274.61822497 -27 280 C-31.92503607 280.35178829 -34.68796574 279.30095946 -39 277 C-38.72285156 278.09699219 -38.44570312 279.19398438 -38.16015625 280.32421875 C-37.79420763 281.77862993 -37.42832573 283.2330579 -37.0625 284.6875 C-36.88009766 285.40873047 -36.69769531 286.12996094 -36.50976562 286.87304688 C-36.24389648 287.93168945 -36.24389648 287.93168945 -35.97265625 289.01171875 C-35.80000244 289.6979834 -35.62734863 290.38424805 -35.44946289 291.09130859 C-35.07068924 292.69981071 -34.77550761 294.32766202 -34.5 295.95703125 C-34.335 296.63121094 -34.17 297.30539062 -34 298 C-31.83378132 299.1025173 -31.83378132 299.1025173 -29 300 C-27.58472035 300.77813268 -26.18963339 301.59369281 -24.8125 302.4375 C-24.13832031 302.84871094 -23.46414062 303.25992187 -22.76953125 303.68359375 C-21 305 -21 305 -19 308 C-18.5625 311.5 -18.5625 311.5 -19 315 C-24.22938183 319.04221181 -29.42070556 318.4797465 -35.75 318.4375 C-36.79671875 318.45748047 -37.8434375 318.47746094 -38.921875 318.49804688 C-47.20554521 318.49286958 -53.48843099 316.97719982 -59.875 311.5625 C-63.55933186 307.11962923 -65.27515664 303.49318981 -66.3125 297.8125 C-66.99104111 294.67121573 -66.99104111 294.67121573 -68 292 C-70.70607887 290.54136234 -70.70607887 290.54136234 -74 290 C-76.1328125 288.6015625 -76.1328125 288.6015625 -78.3125 286.8125 C-79.32763672 285.98685547 -79.32763672 285.98685547 -80.36328125 285.14453125 C-83.42880095 281.12789565 -83.19329856 276.65569438 -82.58203125 271.8359375 C-82.33951342 270.34661224 -82.08242767 268.8596022 -81.8125 267.375 C-81.67231445 266.58013184 -81.53212891 265.78526367 -81.38769531 264.96630859 C-80.12343452 258.11246587 -78.29321886 251.58305729 -76 245 C-75.73106934 244.22301758 -75.46213867 243.44603516 -75.18505859 242.64550781 C-73.6995353 238.35724845 -72.19974277 234.07439802 -70.68359375 229.796875 C-68.11793702 222.52250084 -65.71400075 215.22011007 -63.5625 207.8125 C-63.34787109 207.07837891 -63.13324219 206.34425781 -62.91210938 205.58789062 C-61.25746388 199.91692463 -59.63646683 194.23650894 -58.01953125 188.5546875 C-56.7234014 184.03561408 -55.39741136 179.52557375 -54.06420898 175.01733398 C-52.80496995 170.75445756 -51.56262247 166.48721226 -50.3359375 162.21484375 C-37.94174207 119.1144947 -37.94174207 119.1144947 -27.15063477 104.59765625 C-25.18624293 101.87009839 -23.58802877 98.95442822 -22 96 C-21.61086426 95.31736084 -21.22172852 94.63472168 -20.82080078 93.93139648 C-17.0579088 86.97937642 -15.38544856 80.09600802 -13.875 72.375 C-13.51728516 70.64056641 -13.51728516 70.64056641 -13.15234375 68.87109375 C-11.89427436 62.71675432 -10.72604429 56.54752027 -9.58203125 50.37109375 C-8.44481027 44.23608211 -7.22242219 38.12154651 -5.95703125 32.01171875 C-5.78187988 31.16599304 -5.60672852 30.32026733 -5.42626953 29.44891357 C-4.70413538 25.9688117 -3.97996268 22.4891426 -3.25317383 19.01000977 C-2.71438941 16.42777246 -2.17922502 13.84480569 -1.64453125 11.26171875 C-1.47895218 10.47431808 -1.31337311 9.68691742 -1.14277649 8.87565613 C-0.52065229 5.86208527 0 3.08624371 0 0 Z " fill="#E6E5E5" transform="translate(202,332)"/>
<path d="M0 0 C6.20218584 4.75589644 12.0552661 10.62017284 14.25 18.3125 C14.32751855 22.12019255 14.05567334 25.92593275 13.73242188 29.71875 C13.63529711 32.09731574 13.63114389 34.01005297 14.25 36.3125 C15.9077129 38.01861906 17.51306641 39.10290618 19.58935547 40.25439453 C21.25 41.3125 21.25 41.3125 22.6875 44.1875 C23.92512916 51.06321758 23.3945971 57.04686084 20.25 63.3125 C17.01773503 67.16452079 12.69497991 69.13729707 8.25 71.3125 C7.46625 72.01375 6.6825 72.715 5.875 73.4375 C2.4626223 75.87491265 -0.63594424 76.49985738 -4.75 76.3125 C-9.36482635 75.02640085 -11.18010795 74.25006435 -13.6875 70.125 C-14.038125 69.196875 -14.38875 68.26875 -14.75 67.3125 C-16.4 68.3025 -18.05 69.2925 -19.75 70.3125 C-18.35840337 66.83350842 -17.11748512 65.83197499 -13.75 64.3125 C-13.24339844 65.16134766 -13.24339844 65.16134766 -12.7265625 66.02734375 C-12.28054688 66.76082031 -11.83453125 67.49429688 -11.375 68.25 C-10.93414062 68.98089844 -10.49328125 69.71179688 -10.0390625 70.46484375 C-8.8726016 72.45022272 -8.8726016 72.45022272 -6.75 73.3125 C-1.55393487 74.02359619 -1.55393487 74.02359619 3.0859375 72.078125 C4.25254909 71.01181033 5.39952592 69.92367159 6.52734375 68.81640625 C8.25 67.3125 8.25 67.3125 11.875 65.9375 C16.46886619 63.7256385 18.45522315 61.05071089 20.25 56.3125 C20.99043722 51.67242675 20.8079949 47.76948669 19.125 43.375 C16.80833965 40.82667362 14.33741047 39.78090254 11.25 38.3125 C11.28480469 37.1059375 11.31960938 35.899375 11.35546875 34.65625 C11.38362984 33.04168072 11.41092749 31.42709621 11.4375 29.8125 C11.46263672 29.02101562 11.48777344 28.22953125 11.51367188 27.4140625 C11.60425372 20.04673883 10.07150626 13.47559302 4.95703125 7.8203125 C-5.67401644 -1.57004083 -17.48599353 -5.14742409 -31.44140625 -5.03125 C-35.9534229 -4.56246905 -37.72324658 -3.00251565 -40.75 0.3125 C-42.07352538 1.22276134 -43.40768035 2.11768877 -44.75 3 C-48.09949373 5.43772228 -49.75326805 7.78871341 -51.6875 11.4375 C-54.25900824 16.12257666 -56.62909801 17.86816927 -61.6015625 19.69140625 C-63.64160402 20.28116371 -65.68400277 20.8217088 -67.75 21.3125 C-67.49863281 21.88097656 -67.24726563 22.44945313 -66.98828125 23.03515625 C-65.27660315 27.36129627 -64.46892716 29.43969485 -65.9375 34 C-66.535625 35.093125 -67.13375 36.18625 -67.75 37.3125 C-68.12125 38.42625 -68.4925 39.54 -68.875 40.6875 C-69.75 43.3125 -69.75 43.3125 -70.75 44.3125 C-70.99733137 48.45526875 -70.99733137 48.45526875 -69.75 52.3125 C-70.74 51.9825 -71.73 51.6525 -72.75 51.3125 C-73.92993319 47.16779797 -73.52903097 44.94115655 -71.875 41 C-69.76525218 35.57597706 -67.87752505 30.43886859 -69.5 24.625 C-69.75 22.3125 -69.75 22.3125 -67.8125 19.6875 C-65.03820578 17.53600652 -64.03957791 17.02645243 -60.875 16.1875 C-56.83114318 14.85698888 -55.71348472 12.98947998 -53.6875 9.3125 C-50.60590763 3.93762958 -47.00874655 0.75253276 -42.0625 -2.8125 C-41.08108032 -3.52212891 -41.08108032 -3.52212891 -40.07983398 -4.24609375 C-27.70992425 -12.84904161 -11.62553059 -7.94015831 0 0 Z " fill="#EEEDED" transform="translate(446.75,65.6875)"/>
<path d="M0 0 C0.99 0.33 1.98 0.66 3 1 C2.96519531 1.55945313 2.93039062 2.11890625 2.89453125 2.6953125 C2.43076282 16.43169167 6.15801591 32.01321423 14.953125 42.87109375 C26.16913897 54.53660447 38.58240958 63.2153175 53.89550781 68.5168457 C61.07491851 71.08081019 61.07491851 71.08081019 63 75 C63.1875 78.25 63.1875 78.25 63 81 C53.22638689 86.35221671 39.34955444 86.9332367 28.50732422 84.42285156 C24.78240981 83.28716045 21.19581981 81.90286553 17.6015625 80.41015625 C14.3053641 79.1195623 11.52655513 78.24446621 8 78 C7.01 78.99 7.01 78.99 6 80 C6 78.35 6 76.7 6 75 C12.11596664 75.42669535 17.26239893 77.53475681 22.9140625 79.84375 C29.03792212 82.13825943 34.78856553 82.18296884 41.25 82.1875 C42.15363281 82.19974609 43.05726563 82.21199219 43.98828125 82.22460938 C49.96234585 82.23750304 55.21370032 81.49381002 61 80 C60.08766906 76.78816828 59.60172102 75.34014643 56.63671875 73.6640625 C55.66347656 73.32117188 54.69023437 72.97828125 53.6875 72.625 C40.87654682 67.67183911 31.12820173 61.04015884 21 52 C20.21367187 51.36964844 19.42734375 50.73929688 18.6171875 50.08984375 C6.30599351 40.18939687 2.0373773 24.49253336 0.26171875 9.375 C0.01801074 6.23225791 -0.05282761 3.15044644 0 0 Z " fill="#EBEBEB" transform="translate(346,553)"/>
<path d="M0 0 C3.74859294 2.61863431 6.91500491 5.02523004 8.26171875 9.5234375 C9.09907056 15.01392154 8.23554978 20.58311472 7.19921875 25.99609375 C5.25905747 37.45517131 12.58464219 46.01232535 18.8828125 54.87890625 C19.79986128 56.15691064 20.71783192 57.43425403 21.63671875 58.7109375 C22.58636393 60.04006001 23.5356055 61.36947101 24.484375 62.69921875 C25.19464844 63.69308594 25.90492188 64.68695313 26.63671875 65.7109375 C31.1211806 64.34068527 33.06295643 62.61309328 35.63671875 58.7109375 C36.72953999 56.39719876 37.74300149 54.06945722 38.70703125 51.69921875 C39.63671875 49.7109375 39.63671875 49.7109375 41.63671875 47.7109375 C40.5981667 54.34545238 37.66752694 61.46417492 33.046875 66.4140625 C30.93551084 67.93983202 29.29183212 68.76147412 26.66186523 68.55859375 C23.8770585 67.39297 23.00233828 65.85159328 21.359375 63.3359375 C20.76318359 62.43230469 20.16699219 61.52867187 19.55273438 60.59765625 C18.94107422 59.64503906 18.32941406 58.69242188 17.69921875 57.7109375 C17.09142578 56.78925781 16.48363281 55.86757812 15.85742188 54.91796875 C8.2236338 43.24082582 3.6861488 35.35912407 5.19921875 21.2109375 C5.81531244 14.39300959 5.81531244 14.39300959 4.63671875 7.7109375 C1.31446732 4.01691032 -1.85346551 1.90309587 -6.80078125 1.2734375 C-9.2892582 1.444242 -9.2892582 1.444242 -10.36328125 2.7109375 C-11.45640625 2.7315625 -12.54953125 2.7521875 -13.67578125 2.7734375 C-17.25793062 3.31441103 -17.25793062 3.31441103 -18.64453125 5.16796875 C-21.22409054 9.96555819 -22.13064491 14.93604807 -22.87109375 20.29296875 C-23.36328125 22.7109375 -23.36328125 22.7109375 -25.36328125 25.7109375 C-26.96893657 26.18031558 -28.57826388 26.63968316 -30.20117188 27.04541016 C-35.71151802 28.74157136 -40.84159758 31.75329819 -45.9765625 34.34179688 C-46.88277344 34.78716797 -47.78898437 35.23253906 -48.72265625 35.69140625 C-49.54217773 36.10285889 -50.36169922 36.51431152 -51.20605469 36.93823242 C-53.36328125 37.7109375 -53.36328125 37.7109375 -56.36328125 36.7109375 C-52.67692156 34.93772335 -48.98899238 33.1677971 -45.30078125 31.3984375 C-43.74327148 30.64916992 -43.74327148 30.64916992 -42.15429688 29.88476562 C-40.6315918 29.15483398 -40.6315918 29.15483398 -39.078125 28.41015625 C-37.59832153 27.69291382 -37.59832153 27.69291382 -36.08862305 26.96118164 C-33.82347233 25.92204908 -31.61006466 25.10360323 -29.25390625 24.3125 C-26.04513675 22.9236316 -26.04513675 22.9236316 -24.9453125 19.34765625 C-24.65898523 18.03741211 -24.40313823 16.72019081 -24.17578125 15.3984375 C-23.15088762 10.08475822 -21.85426678 5.97980568 -18.36328125 1.7109375 C-12.9857723 -1.44996425 -5.61111561 -3.06060852 0 0 Z " fill="#E9E9E9" transform="translate(349.36328125,89.2890625)"/>
<path d="M0 0 C1.98 0 3.96 0 6 0 C6.99997471 5.01289929 7.1763077 9.82595675 7.203125 14.9140625 C7.20882507 15.76495453 7.21452515 16.61584656 7.22039795 17.49252319 C7.22981287 19.28943656 7.23636792 21.08636691 7.24023438 22.88330078 C7.24989562 25.59569489 7.28093394 28.30731599 7.3125 31.01953125 C7.39543419 44.18796586 5.75634314 55.12769166 0.0625 67.125 C-0.6556224 68.67226124 -1.37178638 70.22043302 -2.0859375 71.76953125 C-2.42206055 72.49736816 -2.75818359 73.22520508 -3.10449219 73.97509766 C-4.23851156 76.53931704 -5.15130311 79.16210556 -6.0625 81.8125 C-8.66155839 88.40054799 -13.77596845 90.51268456 -19.9375 93.3125 C-21.28829972 93.88303811 -22.64131069 94.44851386 -24 95 C-24 96.98 -24 98.96 -24 101 C-12.78 101 -1.56 101 10 101 C9.67 101.66 9.34 102.32 9 103 C4.01566711 104.6614443 -1.17686561 104.22509154 -6.39672852 104.24023438 C-8.42701034 104.2499498 -10.4562833 104.28099209 -12.48632812 104.3125 C-13.76830078 104.31765625 -15.05027344 104.3228125 -16.37109375 104.328125 C-17.54599365 104.3374707 -18.72089355 104.34681641 -19.93139648 104.35644531 C-23.24352893 103.97171197 -24.59481903 103.24409495 -27 101 C-26.38760954 94.5086611 -26.38760954 94.5086611 -24.76171875 92.375 C-22.63539641 90.71543135 -20.69524004 90.11325867 -18.125 89.3125 C-12.373334 87.0567815 -10.51628552 84.51302685 -8 79 C-7.44699219 77.82824219 -6.89398438 76.65648437 -6.32421875 75.44921875 C-0.0690648 61.85729399 5.18495973 48.42754961 5.09765625 33.32421875 C5.09553383 31.93648003 5.09553383 31.93648003 5.09336853 30.52070618 C5.08778715 27.57627073 5.07523805 24.63191233 5.0625 21.6875 C5.05748259 19.68685006 5.05292011 17.68619892 5.04882812 15.68554688 C5.03782381 10.79033506 5.02057198 5.89518058 5 1 C3.35 1 1.7 1 0 1 C0 0.67 0 0.34 0 0 Z " fill="#D6D7D7" transform="translate(293,554)"/>
<path d="M0 0 C1.16821289 1.54589844 1.16821289 1.54589844 2 4 C1.23740548 6.5877615 0.40144062 8.82156646 -0.69140625 11.265625 C-1.14398048 12.33221344 -1.14398048 12.33221344 -1.60569763 13.42034912 C-2.57672503 15.70347337 -3.56805732 17.97698816 -4.5625 20.25 C-11.03227336 35.18150013 -16.4063712 49.89739123 -19.75 65.875 C-19.95753906 66.81601562 -20.16507813 67.75703125 -20.37890625 68.7265625 C-21.35699049 73.29516243 -22.22349176 77.88313763 -22.890625 82.5078125 C-23.06899902 83.69721436 -23.06899902 83.69721436 -23.25097656 84.91064453 C-23.20841905 87.20861058 -23.20841905 87.20861058 -21.00683594 88.78076172 C-20.34458008 89.18311035 -19.68232422 89.58545898 -19 90 C-21.375 89.6875 -21.375 89.6875 -24 89 C-27.34591986 83.98112021 -25.1325662 78.68986644 -24 73 C-22.96059654 68.27775002 -21.83717635 63.58398284 -20.65087891 58.89672852 C-20.12347995 56.80647553 -19.61009502 54.71310517 -19.09765625 52.61914062 C-17.24584816 45.16175812 -15.05156198 38.06328363 -12 31 C-11.15916863 28.92385029 -10.32354244 26.84558749 -9.4921875 24.765625 C-9.06292969 23.69699219 -8.63367188 22.62835938 -8.19140625 21.52734375 C-7.75699219 20.44582031 -7.32257813 19.36429687 -6.875 18.25 C-6.43285156 17.15300781 -5.99070313 16.05601562 -5.53515625 14.92578125 C-5.10847656 13.86230469 -4.68179688 12.79882812 -4.2421875 11.703125 C-3.8591748 10.75083008 -3.47616211 9.79853516 -3.08154297 8.81738281 C-1.96325843 5.90428944 -0.96507218 2.96700783 0 0 Z " fill="#EAE9E9" transform="translate(221,242)"/>
<path d="M0 0 C1.31849881 3.79424118 0.83370913 7.06382862 0.3125 11 C0.16425781 12.216875 0.01601563 13.43375 -0.13671875 14.6875 C-1.11695041 18.44875091 -2.30779793 19.33329226 -5 22 C-5.894039 24.58058577 -6.63664368 27.0543809 -7.3125 29.6875 C-10.29636345 40.11163107 -15.61388238 47.3168444 -25 53 C-26.36125 53.433125 -26.36125 53.433125 -27.75 53.875 C-31.48739532 55.74369766 -32.46283175 59.26593465 -34 63 C-34.29003906 63.66773438 -34.58007812 64.33546875 -34.87890625 65.0234375 C-36.78352216 69.67916528 -37.55307773 73.99447062 -38 79 C-38.33 79 -38.66 79 -39 79 C-40.1258749 71.61926455 -38.61053337 66.02124714 -35.4375 59.4375 C-35.11523438 58.73496094 -34.79296875 58.03242188 -34.4609375 57.30859375 C-32.49569539 53.48272317 -31.6981725 52.24436037 -27.484375 50.76953125 C-26.33453125 50.51558594 -25.1846875 50.26164062 -24 50 C-17.35839963 44.97637041 -12.10358435 38.09070902 -10 30 C-9.91166791 28.6669885 -9.82859743 27.33362089 -9.75 26 C-9.4182561 22.51005416 -8.49130451 21.17783023 -5.875 18.875 C-4.22572539 17.487064 -4.22572539 17.487064 -3 16 C-3.27395385 13.99100513 -3.61709538 11.99110401 -4 10 C-2.93607677 6.54354697 -1.51145833 3.28239449 0 0 Z " fill="#E3E3E3" transform="translate(424,192)"/>
<path d="M0 0 C0.86625 0.26554688 1.7325 0.53109375 2.625 0.8046875 C3.49125 1.05476562 4.3575 1.30484375 5.25 1.5625 C8.02798082 2.86924756 9.10407951 4.03417759 10.625 6.6796875 C10.8125 9.9296875 10.8125 9.9296875 10.625 12.6796875 C0.85138689 18.03190421 -13.02544556 18.6129242 -23.86767578 16.10253906 C-27.59259019 14.96684795 -31.17918019 13.58255303 -34.7734375 12.08984375 C-38.0696359 10.7992498 -40.84844487 9.92415371 -44.375 9.6796875 C-45.035 10.3396875 -45.695 10.9996875 -46.375 11.6796875 C-46.375 10.0296875 -46.375 8.3796875 -46.375 6.6796875 C-40.25903336 7.10638285 -35.11260107 9.21444431 -29.4609375 11.5234375 C-23.33707788 13.81794693 -17.58643447 13.86265634 -11.125 13.8671875 C-9.76955078 13.88555664 -9.76955078 13.88555664 -8.38671875 13.90429688 C-2.41265415 13.91719054 2.83870032 13.17349752 8.625 11.6796875 C8.06298169 9.22634706 8.06298169 9.22634706 6.625 6.6796875 C3.79718152 4.99818723 3.79718152 4.99818723 0.5 3.8671875 C-0.59570312 3.44824219 -1.69140625 3.02929688 -2.8203125 2.59765625 C-3.66335938 2.29472656 -4.50640625 1.99179687 -5.375 1.6796875 C-2.375 -0.3203125 -2.375 -0.3203125 0 0 Z " fill="#E6E7E6" transform="translate(398.375,621.3203125)"/>
<path d="M0 0 C2.36591195 2.14892126 3.68995275 4.0846999 4.98046875 7 C5.3357666 7.79543213 5.69106445 8.59086426 6.05712891 9.41040039 C6.43015137 10.26496826 6.80317383 11.11953613 7.1875 12 C7.58114746 12.88486084 7.97479492 13.76972168 8.38037109 14.68139648 C10.35662939 19.14957936 12.27557067 23.63640589 14.12109375 28.16015625 C14.78859137 29.79446334 15.45654928 31.42858251 16.125 33.0625 C16.44823242 33.85301758 16.77146484 34.64353516 17.10449219 35.45800781 C19.02030896 40.02471304 21.17007342 44.1185872 23.9375 48.25 C28.46070505 55.02438545 28.46070505 55.02438545 28 60 C26.59315967 62.40264599 25.02896369 64.60773142 23.37109375 66.84375 C21.58776418 69.64830249 21.49988287 71.74923868 22 75 C22.66 75.33 23.32 75.66 24 76 C22.68 76 21.36 76 20 76 C18.31577627 69.56932759 20.54403213 66.49594492 23.75 61 C25.25381636 57.39084074 25.13026927 55.71088405 24 52 C22.64420707 49.73503946 22.64420707 49.73503946 20.875 47.625 C16.44096362 41.57118299 13.72147239 35.07616754 10.89257812 28.17480469 C9.97812615 25.94670343 9.04545055 23.72690742 8.109375 21.5078125 C5.13365106 14.41619901 2.27317899 7.35440261 0 0 Z " fill="#E3E2E2" transform="translate(483,586)"/>
<path d="M0 0 C1.45082514 4.35247541 -0.62064409 7.094019 -2.5234375 11.0078125 C-3.09283554 12.20614212 -3.09283554 12.20614212 -3.67373657 13.42868042 C-4.48473491 15.13060906 -5.30050693 16.83026972 -6.12060547 18.52783203 C-7.34455928 21.06197385 -8.55450701 23.6023789 -9.76171875 26.14453125 C-13.6373055 34.26970756 -17.61678618 42.33901997 -21.78125 50.3203125 C-22.13029388 50.99780548 -22.47933777 51.67529846 -22.83895874 52.37332153 C-25.78344741 57.93964983 -29.36678059 62.67802426 -33.4453125 67.484375 C-35.25414748 69.87977595 -35.25414748 69.87977595 -34.87109375 72.62109375 C-33.71611604 75.77527054 -31.956868 78.28563471 -30 81 C-32.87231652 79.71240983 -35.19225634 78.62122831 -37 76 C-37.5882541 70.20149529 -36.49869057 67.51771148 -33 62.9375 C-32.1585234 61.78824661 -31.32138782 60.63580406 -30.48828125 59.48046875 C-30.06627441 58.8982959 -29.64426758 58.31612305 -29.20947266 57.71630859 C-20.42073323 45.24460125 -14.46684682 30.73873203 -8 17 C-7.15119662 15.2030518 -6.30224967 13.4061714 -5.453125 11.609375 C-3.62827783 7.74290195 -1.81124287 3.87286344 0 0 Z " fill="#EDEEED" transform="translate(255,445)"/>
<path d="M0 0 C0.33 0 0.66 0 1 0 C0.59977206 6.67046573 -1.43072047 12.3135061 -3.734375 18.5625 C-6.36164325 25.6982903 -8.24814974 32.79216512 -9.6875 40.25 C-9.81914551 40.92401855 -9.95079102 41.59803711 -10.08642578 42.29248047 C-11.48808262 49.88910012 -11.48808262 49.88910012 -9.5 57.125 C-6.41725665 60.67015485 -3.2863731 62.23135091 1 64 C1 64.33 1 64.66 1 65 C-2.17303965 65.32067954 -3.67455085 65.20209342 -6.421875 63.49609375 C-7.19015625 62.81675781 -7.9584375 62.13742187 -8.75 61.4375 C-9.52859375 60.77621094 -10.3071875 60.11492188 -11.109375 59.43359375 C-13.92874338 55.80453073 -14.18467639 52.49492429 -13.84912109 47.96166992 C-13.57115959 45.74941139 -13.21119812 43.56866485 -12.8125 41.375 C-12.67303955 40.58158203 -12.5335791 39.78816406 -12.38989258 38.97070312 C-11.12868974 32.1168518 -9.25260637 25.59372196 -7 19 C-6.47995082 17.41205323 -5.9618604 15.82346416 -5.4453125 14.234375 C-4.9017548 12.57268322 -4.35748703 10.91122355 -3.8125 9.25 C-3.55041748 8.45013672 -3.28833496 7.65027344 -3.01831055 6.82617188 C-1.11655013 1.11655013 -1.11655013 1.11655013 0 0 Z " fill="#F3F2F3" transform="translate(133,558)"/>
<path d="M0 0 C1.50422279 3.00844559 0.33981175 4.81833071 -0.625 8 C-1.00613894 9.27836875 -1.38630118 10.55702899 -1.765625 11.8359375 C-1.96865234 12.51495117 -2.17167969 13.19396484 -2.38085938 13.89355469 C-3.21184381 16.72073676 -3.98990261 19.56127023 -4.76733398 22.40356445 C-8.8592819 37.36243713 -13.40534731 52.18900191 -18 67 C-18.66 66.01 -19.32 65.02 -20 64 C-19.40619204 61.97406695 -18.7828854 59.95425672 -18.0546875 57.97265625 C-16.74818001 54.29024068 -15.65259062 50.56368191 -14.5625 46.8125 C-14.34650146 46.07370605 -14.13050293 45.33491211 -13.90795898 44.57373047 C-12.58917419 40.05372973 -11.29006554 35.52828672 -10 31 C-9.33368963 28.6665649 -8.66699909 26.33323833 -8 24 C-7.79874512 23.29246582 -7.59749023 22.58493164 -7.39013672 21.85595703 C-6.74393869 19.59009966 -6.0912777 17.32618073 -5.4375 15.0625 C-5.23962891 14.36447266 -5.04175781 13.66644531 -4.83789062 12.94726562 C-3.53424502 8.45979906 -1.91737233 4.26267994 0 0 Z " fill="#D8D7D7" transform="translate(153,493)"/>
<path d="M0 0 C3.27098457 2.17057941 5.54617647 4.96170275 8 8 C8.69609375 8.82113281 9.3921875 9.64226563 10.109375 10.48828125 C12.45155996 13.29142814 14.72783186 16.13982668 17 19 C17.98135946 20.21387436 18.96314874 21.42740132 19.9453125 22.640625 C20.94331318 23.88493179 21.94071705 25.1297175 22.9375 26.375 C23.41034424 26.95781738 23.88318848 27.54063477 24.37036133 28.14111328 C26.86935332 31.29128622 28.74439227 34.16860271 30 38 C26.36596299 34.51415953 23.25238022 30.85860797 20.25 26.8125 C16.42416114 21.74658642 12.42025746 16.95083885 8.08984375 12.30078125 C6 10 6 10 4.12890625 7.60546875 C0.68301555 3.13243259 0.68301555 3.13243259 -4.5 1.25 C-11.22301223 2.69064548 -14.90616247 5.49449436 -19 11 C-21.25 12.8125 -21.25 12.8125 -23 14 C-23.66 13.67 -24.32 13.34 -25 13 C-23.25612361 11.20200331 -21.50541018 9.41167703 -19.75 7.625 C-19.25886719 7.11710938 -18.76773437 6.60921875 -18.26171875 6.0859375 C-12.74725138 0.4979439 -7.87501388 -1.70367169 0 0 Z " fill="#E4E4E4" transform="translate(448,540)"/>
<path d="M0 0 C0.99 0.33 1.98 0.66 3 1 C3.56679961 8.56232636 2.35714406 13.90488479 -0.9375 20.6875 C-1.3399292 21.54964111 -1.7423584 22.41178223 -2.15698242 23.30004883 C-5.37631439 30.05445614 -9.08749575 36.42566235 -13.046875 42.765625 C-15.44039676 46.72929703 -17.26971797 50.71190976 -19 55 C-19.66 55 -20.32 55 -21 55 C-19.00116186 47.85521686 -15.85531975 41.84754487 -12.0625 35.5 C-8.28670998 29.13443498 -4.84743146 22.83572407 -2 16 C-1.59007812 15.10925781 -1.18015625 14.21851562 -0.7578125 13.30078125 C0.16666752 10.49398367 0.19602074 8.1348606 0.125 5.1875 C0.10695312 4.21167969 0.08890625 3.23585938 0.0703125 2.23046875 C0.04710937 1.49441406 0.02390625 0.75835937 0 0 Z " fill="#F0EFEF" transform="translate(227,78)"/>
<path d="M0 0 C0.99 0.33 1.98 0.66 3 1 C2.0925 1.639375 1.185 2.27875 0.25 2.9375 C-2.4395304 5.15683278 -3.65760577 7.0820246 -4.9375 10.3125 C-8.87142186 19.83922644 -15.43641474 24.51592021 -24.62109375 28.65234375 C-30.69376994 31.07439379 -35.54632227 31.45207749 -42 30 C-42.33 30.66 -42.66 31.32 -43 32 C-43 31.01 -43 30.02 -43 29 C-41.90945313 28.97873047 -41.90945313 28.97873047 -40.796875 28.95703125 C-29.87279912 28.43883791 -18.80771587 25.0723842 -11 17 C-9.33651665 14.44591325 -8.14241241 11.81945131 -7 9 C-3.85093168 2.04580745 -3.85093168 2.04580745 0 0 Z " fill="#E0E0E0" transform="translate(532,502)"/>
<path d="M0 0 C1.63123349 3.00806648 2.61466056 5.90215716 3.47265625 9.2109375 C3.73240234 10.20867187 3.99214844 11.20640625 4.25976562 12.234375 C4.65711914 13.78898438 4.65711914 13.78898438 5.0625 15.375 C5.33126953 16.40367187 5.60003906 17.43234375 5.87695312 18.4921875 C7.81715231 26.00138733 9.14873018 32.89476668 9.1875 40.6875 C9.20167969 41.99074219 9.21585938 43.29398438 9.23046875 44.63671875 C9 48 9 48 7 51 C6.99742187 49.91847656 6.99484375 48.83695313 6.9921875 47.72265625 C6.77382828 36.55549426 4.95775473 26.33606228 2.08349609 15.54321289 C0.67358444 10.19349057 -0.36766277 5.53840939 0 0 Z " fill="#D8D7D6" transform="translate(215,193)"/>
<path d="M0 0 C1.051875 0.556875 2.10375 1.11375 3.1875 1.6875 C7.87321012 4.03448708 12.71156254 5.86281687 17.6171875 7.6953125 C20.92100545 8.96953328 24.13873876 10.37686532 27.375 11.8125 C31.79051134 13.65423302 35.15922637 14.77452378 40 14 C42.02237052 13.04605164 44.0282696 12.05464649 46 11 C46.66 11.33 47.32 11.66 48 12 C46.63487396 12.84941176 45.25729967 13.67883188 43.875 14.5 C42.72644531 15.19609375 42.72644531 15.19609375 41.5546875 15.90625 C37.35272315 17.70525614 34.03402551 17.33228287 29.72021484 15.94604492 C28.56215332 15.46240479 27.4040918 14.97876465 26.2109375 14.48046875 C25.27237411 14.09161247 25.27237411 14.09161247 24.31484985 13.69490051 C23.00010765 13.14758883 21.6874919 12.59514357 20.37695312 12.0378418 C18.3787176 11.18907907 16.3738046 10.3580209 14.3671875 9.52929688 C3.11641242 4.82350214 3.11641242 4.82350214 0 2 C0 1.34 0 0.68 0 0 Z " fill="#E2E3E2" transform="translate(303,161)"/>
<path d="M0 0 C0.66 0 1.32 0 2 0 C1.91878906 1.24136719 1.83757812 2.48273438 1.75390625 3.76171875 C1.68823212 5.40357202 1.62453373 7.04550516 1.5625 8.6875 C1.50384766 9.50412109 1.44519531 10.32074219 1.38476562 11.16210938 C1.31503613 13.62256451 1.348905 15.62237781 2 18 C3.65948836 19.72188702 5.25382628 20.8011209 7.34375 21.95288086 C9 23 9 23 10.4375 25.875 C11.06451702 29.35842789 11.27162414 32.46888613 11 36 C10.34 36.66 9.68 37.32 9 38 C8.96261719 37.33613281 8.92523438 36.67226562 8.88671875 35.98828125 C8.46060404 28.954994 8.46060404 28.954994 5 23 C3.02 22.01 1.04 21.02 -1 20 C-0.67 13.4 -0.34 6.8 0 0 Z " fill="#F1F1EF" transform="translate(459,84)"/>
<path d="M0 0 C1.98 0 3.96 0 6 0 C6.99997471 5.01289929 7.1763077 9.82595675 7.203125 14.9140625 C7.20882507 15.76495453 7.21452515 16.61584656 7.22039795 17.49252319 C7.22981287 19.28943656 7.23636792 21.08636691 7.24023438 22.88330078 C7.24989562 25.59569489 7.28093394 28.30731599 7.3125 31.01953125 C7.3685782 40.47522866 7.06692896 48.95880444 4 58 C3.34 57.67 2.68 57.34 2 57 C2.21438721 56.24315918 2.42877441 55.48631836 2.6496582 54.70654297 C5.47041166 43.47444229 5.34293048 32.63467591 5.1875 21.125 C5.17241598 19.16537494 5.1587342 17.20573857 5.14648438 15.24609375 C5.11379624 10.49711076 5.06222238 5.74868407 5 1 C3.35 1 1.7 1 0 1 C0 0.67 0 0.34 0 0 Z " fill="#EAE9E9" transform="translate(293,554)"/>
<path d="M0 0 C4.86008136 0.33907544 8.78528685 1.61805263 13.3125 3.4375 C23.79678148 7.57634605 33.81998849 8.43354608 45 9 C45 9.33 45 9.66 45 10 C32.80898469 10.68078059 22.94253282 10.11516652 11.6015625 5.41015625 C8.3053641 4.1195623 5.52655513 3.24446621 2 3 C1.34 3.66 0.68 4.32 0 5 C0 3.35 0 1.7 0 0 Z " fill="#F3F3F2" transform="translate(352,628)"/>
<path d="M0 0 C1.70210415 2.55315622 2.70072706 4.56624309 3.76953125 7.39453125 C4.09888672 8.26166748 4.42824219 9.12880371 4.76757812 10.0222168 C5.11240234 10.94301025 5.45722656 11.86380371 5.8125 12.8125 C6.16634766 13.7506958 6.52019531 14.6888916 6.88476562 15.65551758 C15 37.24255838 15 37.24255838 15 40 C14.34 40 13.68 40 13 40 C11.14040117 34.94925653 9.28923602 29.89553255 7.44580078 24.83886719 C6.81757461 23.11927236 6.18705661 21.400513 5.55419922 19.68261719 C4.64466442 17.21245203 3.74342812 14.73939442 2.84375 12.265625 C2.55939087 11.49881409 2.27503174 10.73200317 1.98205566 9.94195557 C0.70160769 6.397586 0 3.81239401 0 0 Z " fill="#F2F2F0" transform="translate(490,532)"/>
<path d="M0 0 C0.33 0 0.66 0 1 0 C1.01417969 0.85980469 1.02835938 1.71960937 1.04296875 2.60546875 C1.58991762 16.16093121 5.66226892 26.35557675 14 37 C13.01 37 12.02 37 11 37 C4.67399371 30.22427762 -1.19846141 20.35515484 -1.08203125 10.90234375 C-0.90082943 7.24540047 -0.50049226 3.62733007 0 0 Z " fill="#F2EFEF" transform="translate(215,40)"/>
<path d="M0 0 C0.66 0 1.32 0 2 0 C2.24900646 1.93505023 2.47356242 3.87325934 2.6875 5.8125 C2.81511719 6.89144531 2.94273437 7.97039062 3.07421875 9.08203125 C3 12 3 12 1.73950195 13.56616211 C-1.29806465 16.06996964 -4.88006541 17.28147895 -8.5 18.75 C-9.27214844 19.07871094 -10.04429687 19.40742188 -10.83984375 19.74609375 C-11.58363281 20.05160156 -12.32742188 20.35710937 -13.09375 20.671875 C-13.77115234 20.9512793 -14.44855469 21.23068359 -15.14648438 21.51855469 C-17 22 -17 22 -20 21 C-13.4 18.03 -6.8 15.06 0 12 C-0.185625 10.205625 -0.37125 8.41125 -0.5625 6.5625 C-0.75388139 4.71247985 -0.91015699 2.85772162 -1 1 C-0.67 0.67 -0.34 0.34 0 0 Z " fill="#E2E3E2" transform="translate(334,129)"/>
<path d="M0 0 C1.32 0.33 2.64 0.66 4 1 C2.68 1.33 1.36 1.66 0 2 C0.25136719 2.56847656 0.50273437 3.13695313 0.76171875 3.72265625 C2.47339685 8.04879627 3.28107284 10.12719485 1.8125 14.6875 C1.214375 15.780625 0.61625 16.87375 0 18 C-0.37125 19.11375 -0.7425 20.2275 -1.125 21.375 C-2 24 -2 24 -3 25 C-3.24733137 29.14276875 -3.24733137 29.14276875 -2 33 C-2.99 32.67 -3.98 32.34 -5 32 C-6.17993319 27.85529797 -5.77903097 25.62865655 -4.125 21.6875 C-1.96552578 16.13563376 -0.36302529 11.18487353 -1.5625 5.1875 C-1.706875 4.465625 -1.85125 3.74375 -2 3 C-1.34 2.01 -0.68 1.02 0 0 Z " fill="#E6E5E5" transform="translate(379,85)"/>
<path d="M0 0 C2.9915822 3.48273749 4.50208321 7.36877556 6.0625 11.625 C6.32635498 12.33414551 6.59020996 13.04329102 6.86206055 13.77392578 C8.58156366 18.5177917 9.8883533 23.18417685 10.67578125 28.1796875 C10.9275364 30.09127688 10.9275364 30.09127688 12 32 C11.34 32.66 10.68 33.32 10 34 C7.4113678 30.21499994 6.57833557 27.35138415 6.125 22.8125 C5.38372139 17.16344579 3.79165173 13.1091496 1.04296875 8.16796875 C-0.30591942 5.36410009 -0.40302725 3.06300708 0 0 Z " fill="#E8E7E6" transform="translate(280,20)"/>
<path d="M0 0 C0.66 0 1.32 0 2 0 C2.45463802 6.36493223 1.75142331 10.74168474 -2 16 C-7.01242681 21.44491496 -13.41246003 26.617705 -21 27.25 C-21.99 27.12625 -21.99 27.12625 -23 27 C-20.39502708 25.26335138 -17.94876394 24.00497041 -15.125 22.6875 C-10.98311924 20.63766091 -8.01938298 18.5683617 -5 15 C-4.48695313 14.40832031 -3.97390625 13.81664062 -3.4453125 13.20703125 C-1.70028238 10.5423231 -1.29779526 8.38575396 -0.8125 5.25 C-0.65394531 4.26515625 -0.49539063 3.2803125 -0.33203125 2.265625 C-0.16767578 1.14414062 -0.16767578 1.14414062 0 0 Z " fill="#DBDADC" transform="translate(535,635)"/>
<path d="M0 0 C0.33 0 0.66 0 1 0 C1.15855469 0.98742187 1.31710938 1.97484375 1.48046875 2.9921875 C1.71378906 4.27351562 1.94710937 5.55484375 2.1875 6.875 C2.40792969 8.15117188 2.62835938 9.42734375 2.85546875 10.7421875 C3.64395007 14.14469887 3.64395007 14.14469887 6.3515625 15.29296875 C7.22554687 15.52628906 8.09953125 15.75960937 9 16 C10.41758504 16.7739248 11.81538 17.58556476 13.1875 18.4375 C13.86167969 18.84871094 14.53585938 19.25992188 15.23046875 19.68359375 C17 21 17 21 19 24 C19.125 26.6875 19.125 26.6875 19 29 C18.34 28.01 17.68 27.02 17 26 C14.20737026 22.87882558 11.46498069 20.59855489 7.875 18.5 C3.35956792 15.79584294 1.65631471 12.96894414 0 8 C-0.12781786 5.32605036 -0.04391871 2.67904143 0 0 Z " fill="#F2F2F1" transform="translate(164,616)"/>
<path d="M0 0 C0.99 0.495 0.99 0.495 2 1 C2.59248076 2.85956832 3.12416634 4.73868258 3.625 6.625 C5.41355735 12.37150556 7.57393528 14.84384086 12.29296875 18.3984375 C14.27020409 20.25350956 14.6458503 21.28402018 15 23.9375 C15 24.948125 15 25.95875 15 27 C6.68013522 18.82826338 1.5900348 11.75788894 0 0 Z " fill="#F0F0F0" transform="translate(533,592)"/>
<path d="M0 0 C5.15200442 0.50312543 8.77232381 3.12155038 13 5.875 C14.39564573 6.76852227 15.79147483 7.66175819 17.1875 8.5546875 C17.84105469 8.9784668 18.49460937 9.40224609 19.16796875 9.83886719 C20.74834623 10.84050302 22.37104528 11.7747834 24 12.6953125 C24.66 13.12585938 25.32 13.55640625 26 14 C26 14.66 26 15.32 26 16 C21.80645418 14.45709163 17.98493642 12.41510688 14.125 10.1875 C13.19953369 9.65564087 13.19953369 9.65564087 12.25537109 9.11303711 C7.97313398 6.62590203 3.89317848 4.05892595 0 1 C0 0.67 0 0.34 0 0 Z " fill="#E9E8E8" transform="translate(482,427)"/>
<path d="M0 0 C0.66 0 1.32 0 2 0 C3.08857866 1.55898938 4.09433668 3.17600644 5.0625 4.8125 C8.34488915 10.16106675 12.06805889 14.85798641 16.1796875 19.58984375 C17.89002078 21.85438374 18.60176991 23.2316586 19 26 C11.53676206 18.76292079 5.06446231 11.14374046 0 2 C0 1.34 0 0.68 0 0 Z " fill="#E8E8E7" transform="translate(418,361)"/>
<path d="M0 0 C0.33 0.99 0.66 1.98 1 3 C-2.39316131 6.09302911 -5.05666255 6.42804288 -9.5625 6.8125 C-14.65415072 7.35347879 -14.65415072 7.35347879 -18.3125 10.6875 C-19.04785646 14.23058113 -19.21652234 17.39129427 -19 21 C-19.66 20.67 -20.32 20.34 -21 20 C-21.42277492 13.86976372 -20.99795398 10.96715495 -17 6 C-14.66132928 3.66132928 -9.27365074 4.08215253 -6.1015625 3.6953125 C-2.97697619 2.99483849 -1.89781825 2.49856648 0 0 Z " fill="#E2E2E0" transform="translate(290,87)"/>
<path d="M0 0 C1.97808229 5.78986131 0.52353798 12.24061653 -1 18 C-2.80975781 20.43485522 -4.37062933 21.35664333 -7 23 C-8.37254588 25.14980497 -8.37254588 25.14980497 -9 27 C-9.375 24.875 -9.375 24.875 -9 22 C-7.62890625 20.54296875 -7.62890625 20.54296875 -5.9375 19.0625 C-4.25409014 17.59125205 -4.25409014 17.59125205 -3 16 C-3.27395385 13.99100513 -3.61709538 11.99110401 -4 10 C-2.93607677 6.54354697 -1.51145833 3.28239449 0 0 Z " fill="#D9D7D5" transform="translate(424,192)"/>
<path d="M0 0 C0.66 0.99 1.32 1.98 2 3 C1.1875 4.9375 1.1875 4.9375 0 7 C-3.1184325 8.0394775 -5.27475586 8.11494838 -8.54296875 8.09765625 C-9.61611328 8.09443359 -10.68925781 8.09121094 -11.79492188 8.08789062 C-12.91447266 8.07951172 -14.03402344 8.07113281 -15.1875 8.0625 C-16.31865234 8.05798828 -17.44980469 8.05347656 -18.61523438 8.04882812 C-21.41020927 8.03703498 -24.2050782 8.0205765 -27 8 C-26.67 7.34 -26.34 6.68 -26 6 C-25.42032471 6.01047363 -24.84064941 6.02094727 -24.2434082 6.03173828 C-21.59981679 6.07348615 -18.95629495 6.09938538 -16.3125 6.125 C-15.40048828 6.14175781 -14.48847656 6.15851562 -13.54882812 6.17578125 C-7.02095843 6.29397677 -7.02095843 6.29397677 -1 4 C-0.11306697 1.95894361 -0.11306697 1.95894361 0 0 Z " fill="#D5D5D5" transform="translate(181,642)"/>
<path d="M0 0 C0.66 0.33 1.32 0.66 2 1 C-2.01807789 5.87909458 -6.68813047 7.90027064 -12.453125 10.375 C-15.24307929 11.77334492 -15.24307929 11.77334492 -15.859375 14.6875 C-15.90578125 15.450625 -15.9521875 16.21375 -16 17 C-16.33 17 -16.66 17 -17 17 C-17.36783439 11.48248408 -17.36783439 11.48248408 -15.796875 9.421875 C-13.64943583 7.72259705 -11.64347434 6.96681131 -9.0625 6.0625 C-5.21921231 4.60934451 -2.59951356 3.3084718 0 0 Z " fill="#E7E6E7" transform="translate(284,637)"/>
<path d="M0 0 C0.66 0 1.32 0 2 0 C0.97653061 2.67676611 -0.08842261 5.15658171 -1.5 7.65625 C-3.27466017 11.6122633 -3.76608706 15.09901183 -4.1875 19.375 C-4.26935547 20.11105469 -4.35121094 20.84710938 -4.43554688 21.60546875 C-4.63392556 23.40254625 -4.81840577 25.20114893 -5 27 C-5.33 27 -5.66 27 -6 27 C-6.41305937 17.10187359 -6.10834435 8.23298586 0 0 Z " fill="#F6F6F6" transform="translate(220,24)"/>
<path d="M0 0 C3.79714544 0.39280815 5.54166529 2.20258464 8 5 C9.32229189 7.64458379 9.09677194 9.67761301 9.0625 12.625 C9.05347656 13.62789063 9.04445313 14.63078125 9.03515625 15.6640625 C9.02355469 16.43492187 9.01195312 17.20578125 9 18 C8.67 18 8.34 18 8 18 C7.91363281 17.33613281 7.82726562 16.67226563 7.73828125 15.98828125 C6.80120085 10.09928975 5.84007814 6.87206251 1 3 C0.34 2.34 -0.32 1.68 -1 1 C-0.67 0.67 -0.34 0.34 0 0 Z " fill="#F1F0F0" transform="translate(550,458)"/>
<path d="M0 0 C1.2109375 1.484375 1.2109375 1.484375 2 4 C1.22006683 6.90575499 -0.07473722 9.54430613 -1.375 12.25 C-1.88933594 13.36761719 -1.88933594 13.36761719 -2.4140625 14.5078125 C-3.26202932 16.34507395 -4.12920239 18.17344891 -5 20 C-5.66 20 -6.32 20 -7 20 C-4.80962826 13.27954125 -2.44234339 6.63275997 0 0 Z " fill="#EDECEC" transform="translate(221,242)"/>
<path d="M0 0 C0.33 0 0.66 0 1 0 C2.23121528 8.0296649 2.41228224 13.04731284 -2 20 C-2.99 19.67 -3.98 19.34 -5 19 C-4.360625 17.906875 -3.72125 16.81375 -3.0625 15.6875 C-0.48668849 10.61779324 -0.2062446 5.60985308 0 0 Z " fill="#DFDFDE" transform="translate(557,468)"/>
<path d="M0 0 C4.14298667 0.59834725 7.18194377 2.00664285 10.8125 4.0625 C11.78832031 4.61035156 12.76414062 5.15820312 13.76953125 5.72265625 C14.50558594 6.14417969 15.24164062 6.56570313 16 7 C16 7.66 16 8.32 16 9 C10.31497465 7.35433477 5.23318364 4.70967216 0 2 C0 1.34 0 0.68 0 0 Z " fill="#D8D8D7" transform="translate(508,442)"/>
<path d="M0 0 C3.36397926 1.42378947 5.19643552 3.12610426 7.5 5.9375 C9.79861664 8.73240887 12.02994581 10.92226472 15 13 C14.67 13.99 14.34 14.98 14 16 C11.65861457 13.71643754 9.32833018 11.42186626 7 9.125 C5.99839844 8.14853516 5.99839844 8.14853516 4.9765625 7.15234375 C4.34492188 6.52714844 3.71328125 5.90195312 3.0625 5.2578125 C2.47597656 4.6817627 1.88945312 4.10571289 1.28515625 3.51220703 C0 2 0 2 0 0 Z " fill="#F8F7F8" transform="translate(437,386)"/>
<path d="M0 0 C0.66 0 1.32 0 2 0 C1.49572053 4.41244536 -0.01327751 6.74974317 -3 10 C-6.4352048 12.29013653 -7.985331 12.17842973 -12 12 C-9 10 -9 10 -6.5625 8.8125 C-3.08757756 6.35462803 -1.92246305 3.77372376 0 0 Z " fill="#E1E0E0" transform="translate(467,122)"/>
<path d="M0 0 C-0.33 0.66 -0.66 1.32 -1 2 C-3.94131891 2.98043964 -5.82501665 3.11621202 -8.88671875 3.09765625 C-9.82451172 3.09443359 -10.76230469 3.09121094 -11.72851562 3.08789062 C-12.70498047 3.07951172 -13.68144531 3.07113281 -14.6875 3.0625 C-16.16959961 3.05573242 -16.16959961 3.05573242 -17.68164062 3.04882812 C-20.12115474 3.03704303 -22.56054689 3.02059011 -25 3 C-25 2.67 -25 2.34 -25 2 C-23.38931641 1.92652344 -23.38931641 1.92652344 -21.74609375 1.8515625 C-20.30987358 1.77646602 -18.87367681 1.70092124 -17.4375 1.625 C-16.73302734 1.5940625 -16.02855469 1.563125 -15.30273438 1.53125 C-11.7334441 1.33386989 -8.52194057 0.95493175 -5.09765625 -0.1015625 C-2 -1 -2 -1 0 0 Z " fill="#BFBFBE" transform="translate(407,634)"/>
<path d="M0 0 C0.33 0.99 0.66 1.98 1 3 C0.0409375 4.1446875 0.0409375 4.1446875 -0.9375 5.3125 C-3.38588343 8.50281781 -3.3646381 10.08014044 -3 14 C-2.34 14.33 -1.68 14.66 -1 15 C-2.32 15 -3.64 15 -5 15 C-5.83825741 12.13595384 -6.37985284 9.95061618 -5.24609375 7.11328125 C-3.73551306 4.45443628 -2.16441059 2.16441059 0 0 Z " fill="#F1F1F1" transform="translate(508,647)"/>
<path d="M0 0 C0.99 0 1.98 0 3 0 C2.54619105 1.89692143 2.08675008 3.79249595 1.625 5.6875 C1.36976563 6.74324219 1.11453125 7.79898438 0.8515625 8.88671875 C0.08094511 11.70406766 -0.85498543 14.31668325 -2 17 C-2.66 16.01 -3.32 15.02 -4 14 C-3.57421875 11.9140625 -3.57421875 11.9140625 -2.6875 9.625 C-1.50600865 6.42033542 -0.54606325 3.38559216 0 0 Z " fill="#DDDCDC" transform="translate(137,543)"/>
<path d="M0 0 C9.57668161 -0.76681614 9.57668161 -0.76681614 13.06640625 1.11328125 C14.6875 2.5 14.6875 2.5 17 5 C16.67 5.99 16.34 6.98 16 8 C15.21625 7.21625 14.4325 6.4325 13.625 5.625 C9.6033633 2.21240925 5.10272004 1.67565661 0 1 C0 0.67 0 0.34 0 0 Z " fill="#D7D7D8" transform="translate(516,585)"/>
<path d="M0 0 C-0.639375 0.309375 -1.27875 0.61875 -1.9375 0.9375 C-3.93610821 1.8345163 -3.93610821 1.8345163 -5 3 C-7.32817964 3.36760731 -9.6618385 3.70241581 -12 4 C-12.66 5.65 -13.32 7.3 -14 9 C-14.66 8.01 -15.32 7.02 -16 6 C-10.83433036 0.24396811 -7.5023986 -0.17447439 0 0 Z " fill="#E2E3E3" transform="translate(344,89)"/>
<path d="M0 0 C2.40746025 2.40746025 2.49105426 3.69617926 3.0625 7 C3.67293653 10.61780675 3.67293653 10.61780675 5 14 C4.34 14.66 3.68 15.32 3 16 C-1.01676824 11.14640505 -0.28136159 5.95027665 0 0 Z " fill="#E0DFDE" transform="translate(287,38)"/>
<path d="M0 0 C0.66 0 1.32 0 2 0 C1.71848084 2.12636813 1.42446737 4.25108528 1.125 6.375 C0.96257812 7.55835938 0.80015625 8.74171875 0.6328125 9.9609375 C0 13 0 13 -2 15 C-3.23922223 11.28233332 -2.57018942 9.56110463 -1.5625 5.8125 C-1.13130859 4.18248047 -1.13130859 4.18248047 -0.69140625 2.51953125 C-0.46324219 1.68808594 -0.23507812 0.85664062 0 0 Z " fill="#E3E3E3" transform="translate(298,597)"/>
<path d="M0 0 C3.77381819 0.52414142 6.49153512 1.02700459 9 4 C9.71043991 8.7011826 9.66583201 12.00125199 7 16 C7 12.04 7 8.08 7 4 C4.525 3.01 4.525 3.01 2 2 C1.34 1.34 0.68 0.68 0 0 Z " fill="#E6E7E5" transform="translate(384,121)"/>
<path d="M0 0 C0.99 0.33 1.98 0.66 3 1 C1.576875 2.0828125 1.576875 2.0828125 0.125 3.1875 C-2.67412562 5.49809898 -3.98517558 7.44811452 -5 11 C-5.66 11 -6.32 11 -7 11 C-6.14044667 6.93665699 -5.49656344 4.50929583 -2.5625 1.5 C-1.2940625 0.7575 -1.2940625 0.7575 0 0 Z " fill="#DEDEDE" transform="translate(532,502)"/>
<path d="M0 0 C0.33 0 0.66 0 1 0 C1.06058594 0.95261719 1.12117187 1.90523437 1.18359375 2.88671875 C1.26738281 4.14097656 1.35117188 5.39523438 1.4375 6.6875 C1.51871094 7.92886719 1.59992188 9.17023437 1.68359375 10.44921875 C1.94491317 13.38180337 2.34798379 16.13441617 3 19 C0.984375 17.484375 0.984375 17.484375 -1 15 C-1.12958424 12.23160951 -1.0727725 9.96026429 -0.75 7.25 C-0.68425781 6.55261719 -0.61851562 5.85523438 -0.55078125 5.13671875 C-0.38640673 3.42252737 -0.19577346 1.71088977 0 0 Z " fill="#C7C5C4" transform="translate(215,40)"/>
<path d="M0 0 C4.66666667 2.33333333 9.33333333 4.66666667 14 7 C11.40927388 7.97226335 10.30300917 8.11611108 7.67578125 7.109375 C6.89589844 6.66078125 6.11601562 6.2121875 5.3125 5.75 C4.52488281 5.31171875 3.73726562 4.8734375 2.92578125 4.421875 C1 3 1 3 0 0 Z " fill="#EFEFEF" transform="translate(141,641)"/>
<path d="M0 0 C0.66 0 1.32 0 2 0 C2.33 3.63 2.66 7.26 3 11 C0.08831354 7.11775139 -0.58841824 5.63029484 -1 1 C-0.67 0.67 -0.34 0.34 0 0 Z " fill="#EAE9E7" transform="translate(334,129)"/>
<path d="M0 0 C1.98 0.99 1.98 0.99 4 2 C3.34 2 2.68 2 2 2 C2.33 2.680625 2.66 3.36125 3 4.0625 C4.17307315 7.50840238 4.14180493 10.38397422 4 14 C3.67 14 3.34 14 3 14 C2.01 9.38 1.02 4.76 0 0 Z " fill="#D5D0CF" transform="translate(160,606)"/>
<path d="M0 0 C0.66 0 1.32 0 2 0 C6 4.35294118 6 4.35294118 6 8 C2.57701423 6.85900474 1.85241234 5.99914379 0 3 C0 2.01 0 1.02 0 0 Z " fill="#F4F4F3" transform="translate(291,52)"/>
<path d="M0 0 C3.16115776 1.36983503 3.9927092 1.9890638 6 5 C6.125 7.6875 6.125 7.6875 6 10 C5.34 9.01 4.68 8.02 4 7 C3.29875 6.154375 2.5975 5.30875 1.875 4.4375 C0 2 0 2 0 0 Z " fill="#FBFBFA" transform="translate(177,635)"/>
<path d="M0 0 C4.455 2.97 4.455 2.97 9 6 C8.01 6.33 7.02 6.66 6 7 C4.17578125 6.00390625 4.17578125 6.00390625 2.3125 4.5625 C1.68988281 4.08941406 1.06726563 3.61632812 0.42578125 3.12890625 C-0.04472656 2.75636719 -0.51523437 2.38382812 -1 2 C-0.67 1.34 -0.34 0.68 0 0 Z " fill="#F3F3F2" transform="translate(475,420)"/>
<path d="M0 0 C4.05606165 0.46800711 7.46588679 0.87953208 11 3 C11 3.66 11 4.32 11 5 C7.27566618 3.7874262 3.62197194 2.49140021 0 1 C0 0.67 0 0.34 0 0 Z " fill="#DBDCDD" transform="translate(314,168)"/>
<path d="M0 0 C1.31554985 0.4495045 2.62738358 0.90989716 3.9375 1.375 C5.03384766 1.75785156 5.03384766 1.75785156 6.15234375 2.1484375 C8 3 8 3 9 5 C5.26512223 4.5020163 3.18762365 4.12508244 0 2 C0 1.34 0 0.68 0 0 Z " fill="#F0F0EF" transform="translate(524,449)"/>
<path d="M0 0 C1 3 1 3 0.22265625 4.82421875 C-0.8515625 6.54947917 -1.92578125 8.27473958 -3 10 C-3.75 8.375 -3.75 8.375 -4 6 C-2.0625 2.75 -2.0625 2.75 0 0 Z " fill="#E3E2E3" transform="translate(218,109)"/>
<path d="M0 0 C0.99 0 1.98 0 3 0 C3.66 2.31 4.32 4.62 5 7 C4.34 7 3.68 7 3 7 C0 2.61538462 0 2.61538462 0 0 Z " fill="#DFDEDE" transform="translate(137,634)"/>
<path d="M0 0 C3 1 3 1 4.6875 4.0625 C5.120625 5.031875 5.55375 6.00125 6 7 C3.00675737 5.9024777 2.15389099 5.32317108 0.75 2.375 C0.5025 1.59125 0.255 0.8075 0 0 Z " fill="#EBE9E9" transform="translate(223,71)"/>
</svg>
