<?xml version="1.0" encoding="UTF-8"?>
<svg version="1.1" xmlns="http://www.w3.org/2000/svg" width="900" height="900">
<path d="M0 0 C7.90062814 6.42082795 13.36201942 14.80220405 19.11279297 23.10253906 C20.88644607 25.65502045 22.69397476 28.18141328 24.50927734 30.7043457 C28.71385046 36.54991535 32.86588992 42.43345304 37.0234375 48.3125 C37.52367432 49.01898682 38.02391113 49.72547363 38.53930664 50.45336914 C41.3034933 54.36824949 44.01030064 58.31153414 46.6484375 62.3125 C48.11990234 62.0959375 48.11990234 62.0959375 49.62109375 61.875 C67.28935797 59.38912402 84.33829536 58.57622859 99.6484375 69.3125 C112.05808965 78.97936968 120.61697398 91.43391783 122.6484375 107.3125 C122.78611749 109.35122299 122.86771366 111.39436435 122.8984375 113.4375 C122.92421875 114.45070313 122.95 115.46390625 122.9765625 116.5078125 C121.92609454 128.68823857 117.04643938 140.45350812 113.0859375 151.9375 C112.77474976 152.84268372 112.46356201 153.74786743 112.14294434 154.68048096 C88.48072693 223.42463545 88.48072693 223.42463545 66.6484375 234.3125 C50.59134548 241.01653969 29.70008213 241.51073369 13.3984375 235.5625 C8.42101449 233.4083366 4.02908037 230.48687889 -0.3515625 227.3125 C-1.63280134 229.87497767 -1.55598063 231.75714097 -1.6015625 234.625 C-1.64023438 236.04232422 -1.64023438 236.04232422 -1.6796875 237.48828125 C-0.65022686 249.48639993 3.69537952 260.02850101 8.31137085 271.01394653 C9.49195495 273.82382382 10.66018335 276.638568 11.82543945 279.45483398 C13.51960728 283.54792074 15.21801351 287.63921196 16.91894531 291.72949219 C21.28785402 302.25057804 25.59318649 312.79770857 29.89535522 323.34622192 C31.30099447 326.7894053 32.71138589 330.23061219 34.12231445 333.67163086 C38.11016116 343.42073871 42.05102721 353.17939571 45.70703125 363.05859375 C46.13129646 364.20238243 46.13129646 364.20238243 46.56413269 365.36927795 C51.22565604 378.16163415 51.89640945 390.8718003 51.18359375 404.3828125 C51.06100752 407.87246617 50.95281203 411.36240144 50.8449707 414.85253906 C50.75597299 417.23294411 50.63996272 419.61250001 50.49633789 421.99023438 C49.4166674 438.65132224 49.4166674 438.65132224 57.09727478 452.83444214 C59.81750995 455.53650559 62.64686392 458.04987443 65.5944519 460.50042725 C68.40347449 462.97861079 70.7860947 465.74129033 73.19813538 468.60012817 C74.90977827 470.62106507 76.74384656 472.47358461 78.6484375 474.3125 C81.18043566 476.75718788 83.51677118 479.30144659 85.80883789 481.96850586 C89.47267492 486.16666357 93.3245678 490.13353091 97.26953125 494.06640625 C97.97312271 494.77095444 98.67671417 495.47550262 99.40162659 496.20140076 C100.87858398 497.67903367 102.35678492 499.15542457 103.83618164 500.63061523 C106.08008835 502.86916481 108.31860454 505.11300473 110.55664062 507.35742188 C112.00228368 508.80240404 113.44823695 510.24707592 114.89453125 511.69140625 C115.5531163 512.35201553 116.21170135 513.01262482 116.89024353 513.69325256 C120.74223534 517.52619755 124.69872172 521.17568914 128.82923889 524.7073822 C130.6811539 526.34136638 132.41978646 528.04932952 134.1484375 529.8125 C138.53902041 534.27261703 143.28569414 538.30320768 148.05078125 542.35546875 C148.84613281 543.04253906 149.64148438 543.72960937 150.4609375 544.4375 C151.18925781 545.05882812 151.91757812 545.68015625 152.66796875 546.3203125 C156.66214963 550.33812759 158.33692329 554.2374025 158.76953125 559.796875 C158.15741094 572.51318085 148.33343145 583.88173459 140.6484375 593.3125 C140.19082031 593.90546875 139.73320313 594.4984375 139.26171875 595.109375 C122.03502752 616.63039901 93.27517203 627.99693368 66.6484375 631.3125 C64.0466275 631.41318793 61.47225309 631.4762073 58.87109375 631.48046875 C58.14208359 631.48379715 57.41307343 631.48712555 56.66197205 631.49055481 C55.12320581 631.49559147 53.58442877 631.49796415 52.0456543 631.49780273 C49.74833952 631.4999648 47.45152541 631.51808727 45.15429688 631.53710938 C31.59953053 631.59035256 18.42936442 630.41131707 5.2734375 626.9375 C4.42910156 626.72125977 3.58476563 626.50501953 2.71484375 626.28222656 C-2.50746397 624.90804126 -7.53972709 623.32369088 -12.4765625 621.109375 C-14.41242872 620.28663186 -16.30152604 619.77009742 -18.3515625 619.3125 C-18.69445312 619.7971875 -19.03734375 620.281875 -19.390625 620.78125 C-24.8134063 627.72668417 -31.66674681 631.37678866 -39.3515625 635.3125 C-40.27195312 635.786875 -41.19234375 636.26125 -42.140625 636.75 C-73.11782818 651.72387465 -115.04780844 654.227742 -148.3515625 646.3125 C-149.20024902 646.11382324 -150.04893555 645.91514648 -150.92333984 645.71044922 C-166.06403388 642.04139376 -182.58221083 637.02018335 -194.3515625 626.3125 C-194.87234375 625.84714844 -195.393125 625.38179687 -195.9296875 624.90234375 C-197.3515625 623.5625 -197.3515625 623.5625 -199.3515625 621.3125 C-199.3515625 620.6525 -199.3515625 619.9925 -199.3515625 619.3125 C-199.81304687 619.63412109 -200.27453125 619.95574219 -200.75 620.28710938 C-234.72753316 643.82293027 -271.91081961 654.58792157 -313.4387207 648.23608398 C-336.02342517 644.11339703 -360.77344172 634.89062078 -377.3515625 618.3125 C-382.16960246 618.61752699 -385.68199716 620.34776728 -389.9140625 622.5625 C-418.75021646 636.75346296 -451.99657276 633.61170549 -481.66015625 623.93359375 C-509.07735727 614.52152474 -531.6734081 595.08094325 -545.1015625 569.4375 C-552.18570709 554.58047453 -557.68115973 537.02920081 -556.3515625 520.3125 C-554.27547707 514.63058197 -550.88679439 510.78801232 -545.66015625 507.74609375 C-542.02297656 506.17012569 -538.61498995 505.5701136 -534.7265625 505.0625 C-501.67758243 500.02382827 -469.46671085 488.60856503 -439.3515625 474.3125 C-438.39572266 473.85875 -437.43988281 473.405 -436.45507812 472.9375 C-418.3800662 464.27527509 -401.02263072 454.43750299 -384.3515625 443.3125 C-383.75375977 442.91659668 -383.15595703 442.52069336 -382.54003906 442.11279297 C-364.70153732 430.25620386 -347.79947042 417.01835637 -331.3515625 403.3125 C-330.46960205 402.57918457 -330.46960205 402.57918457 -329.56982422 401.83105469 C-312.8680596 387.88733697 -296.40236702 372.96194793 -282.3515625 356.3125 C-281.55621094 355.40628906 -280.76085937 354.50007813 -279.94140625 353.56640625 C-268.06279959 339.9503708 -257.59483 325.41193148 -249.3515625 309.3125 C-249.02430176 308.67715332 -248.69704102 308.04180664 -248.35986328 307.38720703 C-246.17794221 303.09452639 -244.20517282 298.7573819 -242.3515625 294.3125 C-241.96484375 293.38727539 -241.96484375 293.38727539 -241.5703125 292.44335938 C-238.63599082 285.39009524 -238.63599082 285.39009524 -239.02734375 278 C-240.60215844 275.54719128 -242.42028674 273.49972797 -244.3515625 271.3125 C-245.93371166 269.23780991 -247.47897514 267.13805272 -249.02539062 265.03662109 C-250.6159238 262.87783723 -252.22238855 260.73241937 -253.83984375 258.59375 C-254.29915283 257.98595703 -254.75846191 257.37816406 -255.23168945 256.75195312 C-256.28136023 255.34140007 -256.28136023 255.34140007 -257.3515625 254.3125 C-257.86428711 255.17713867 -258.37701172 256.04177734 -258.90527344 256.93261719 C-269.52057967 274.83182537 -280.14846086 292.72261794 -290.90234375 310.5390625 C-291.30380615 311.20542725 -291.70526855 311.87179199 -292.11889648 312.55834961 C-292.88114363 313.82314233 -293.64490336 315.08702509 -294.41040039 316.34985352 C-296.37814823 319.61399993 -298.18964177 322.91504855 -299.9140625 326.3125 C-305.03081392 335.40907419 -313.93296754 339.4350259 -323.05966187 343.67965698 C-326.9025729 345.467026 -330.7256189 347.2961276 -334.55078125 349.12109375 C-335.38565567 349.51819046 -336.22053009 349.91528717 -337.08070374 350.32441711 C-344.26779096 353.75758881 -351.38663818 357.31939823 -358.49609375 360.91015625 C-359.61653076 361.47524902 -360.73696777 362.0403418 -361.89135742 362.62255859 C-366.38825058 364.89185555 -370.88438811 367.16248662 -375.37371826 369.44671631 C-378.53337501 371.05359846 -381.69786659 372.6505915 -384.86328125 374.24609375 C-385.8046846 374.72869156 -386.74608795 375.21128937 -387.71601868 375.70851135 C-400.68993572 382.22116291 -415.33375462 383.70088942 -429.4140625 379.6875 C-443.29874335 374.64331848 -454.76089738 365.65963314 -461.3515625 352.3125 C-461.74085938 351.54421875 -462.13015625 350.7759375 -462.53125 349.984375 C-468.83576724 336.08682605 -468.11040397 321.6808654 -463.1640625 307.5625 C-460.71529043 301.61241348 -457.60807026 297.08657612 -453.3515625 292.3125 C-452.51915039 291.36238037 -452.51915039 291.36238037 -451.66992188 290.39306641 C-446.22502186 284.55393183 -440.22791347 281.11144826 -433.1640625 277.5 C-431.96328276 276.86909584 -430.76327102 276.23672817 -429.56396484 275.60302734 C-423.09675807 272.20297002 -416.57624451 268.91614307 -410.02415466 265.68299866 C-406.66307711 264.02190467 -403.31018352 262.34459393 -399.9571228 260.66738892 C-397.51908313 259.45858219 -395.06858749 258.27827955 -392.61645508 257.09838867 C-384.26766711 252.99602226 -378.58603653 249.88631683 -374.3515625 241.3125 C-373.30841134 239.56119852 -372.26411146 237.8105149 -371.20437622 236.06919861 C-369.60079499 233.42763424 -368.03475719 230.76449125 -366.46569824 228.10232544 C-364.77490368 225.23371282 -363.07857973 222.36838374 -361.38256836 219.50285339 C-360.53740777 218.07480142 -359.69251607 216.64659027 -358.84790039 215.21821594 C-354.70372426 208.21099062 -350.51839255 201.22894069 -346.3203125 194.25390625 C-344.05961728 190.49720839 -341.81314092 186.73223478 -339.5703125 182.96484375 C-338.91192383 181.86132568 -338.25353516 180.75780762 -337.57519531 179.62084961 C-336.30651323 177.49419067 -335.04004995 175.36620565 -333.77636719 173.23657227 C-317.94285749 146.73255965 -317.94285749 146.73255965 -303.07421875 139.56640625 C-302.37849258 139.22495071 -301.68276642 138.88349518 -300.96595764 138.5316925 C-298.76397873 137.45274331 -296.55792303 136.38245543 -294.3515625 135.3125 C-292.948134 134.62636772 -291.54497258 133.93968887 -290.14208984 133.25244141 C-285.86240574 131.15866152 -281.57623285 129.07839808 -277.2890625 127 C-275.75984492 126.25781679 -274.23062945 125.51562924 -272.70141602 124.7734375 C-261.19971881 119.19440767 -249.67845868 113.65718575 -238.13452148 108.16601562 C-236.86795411 107.55970047 -235.60752778 106.94048264 -234.3515625 106.3125 C-233.66052831 104.20807891 -233.66052831 104.20807891 -233.1940918 101.6159668 C-232.99015305 100.61369553 -232.78621429 99.61142426 -232.57609558 98.57878113 C-232.36149185 97.48415054 -232.14688812 96.38951996 -231.92578125 95.26171875 C-231.45393714 92.94983691 -230.98192638 90.63798907 -230.50976562 88.32617188 C-229.775367 84.67811328 -229.04489715 81.02931955 -228.31860352 77.37963867 C-227.61475749 73.85896673 -226.89589931 70.34159305 -226.17578125 66.82421875 C-225.96725021 65.75185471 -225.75871918 64.67949066 -225.54386902 63.57463074 C-223.16352346 52.00788918 -219.2550288 42.17604029 -211.3515625 33.3125 C-210.82949219 32.69761719 -210.30742187 32.08273438 -209.76953125 31.44921875 C-196.57328989 16.96867166 -176.47532925 15.45540164 -158.31640625 11.890625 C-156.15290463 11.46355345 -153.98945868 11.03619984 -151.82606506 10.60858154 C-146.13386961 9.48417725 -140.44098402 8.36330774 -134.7479248 7.24328613 C-127.96233082 5.90772031 -121.17746601 4.56845562 -114.3926487 3.2289505 C-108.8898754 2.14267326 -103.38678714 1.05805837 -97.88290405 -0.02258301 C-88.14245456 -1.9369652 -78.40734415 -3.86968083 -68.68798828 -5.88867188 C-67.06746449 -6.22276938 -65.44690595 -6.55669845 -63.8263092 -6.89044189 C-60.92121535 -7.48876332 -58.0193743 -8.1002095 -55.11888123 -8.72039795 C-36.77727831 -12.50100652 -15.62532844 -11.21286027 0 0 Z M-74.05859375 31.45703125 C-76.71778213 31.99103327 -79.37791221 32.52027607 -82.03800964 33.04972839 C-87.58474546 34.15631964 -93.12900028 35.27464553 -98.67163086 36.40161133 C-106.45189677 37.9835221 -114.23648155 39.54329306 -122.02202189 41.09900439 C-128.11843402 42.31808655 -134.21357359 43.54351199 -140.30859375 44.76953125 C-141.59068033 45.02728647 -142.87276691 45.28504169 -144.19370461 45.55060768 C-147.84701863 46.28669925 -151.49945522 47.02698598 -155.15161133 47.76879883 C-156.21319962 47.98243073 -157.2747879 48.19606262 -158.36854553 48.41616821 C-163.54878589 49.47301596 -168.71336866 50.58981756 -173.8601532 51.79960632 C-174.81668635 52.0231866 -175.77321951 52.24676687 -176.75873852 52.47712231 C-180.78841333 53.7754366 -183.83241339 55.91620984 -186.3515625 59.3125 C-188.7088479 64.13209837 -190.01994629 68.64240945 -191.0390625 73.9375 C-191.29042969 75.20851563 -191.54179687 76.47953125 -191.80078125 77.7890625 C-192.25904737 80.72066562 -192.47040774 83.35834688 -192.3515625 86.3125 C-191.75472656 86.14234375 -191.15789062 85.9721875 -190.54296875 85.796875 C-188.67440657 85.27489923 -186.80153542 84.76824247 -184.92593384 84.27215576 C-182.57071928 83.63982213 -180.22375572 82.97578225 -177.88705444 82.27813721 C-166.02542937 79.03292867 -154.69217974 78.81806985 -142.44505692 78.94890594 C-138.78329845 78.98544599 -135.12247257 78.99230286 -131.46054077 78.99176025 C-121.05771316 78.99434456 -110.65541043 79.03885478 -100.25292969 79.12353516 C-46.14899462 79.94860964 -46.14899462 79.94860964 6.6484375 69.3125 C5.21254125 65.08927574 3.12643505 62.14936111 0.3359375 58.6875 C-4.74822042 52.29117863 -9.31657065 45.59215886 -13.79614258 38.76123047 C-18.1074677 32.30393341 -21.69178255 28.477127 -29.3515625 26.3125 C-44.46779324 24.60520216 -59.34527415 28.44594756 -74.05859375 31.45703125 Z M54.42553711 97.76538086 C53.44530579 97.9198317 52.46507446 98.07428253 51.45513916 98.2334137 C49.33985305 98.56758646 47.22506208 98.90490578 45.11073112 99.2450695 C41.75034045 99.78545515 38.38865353 100.31700016 35.02650452 100.84632874 C26.67255577 102.16334102 18.32091894 103.4947715 9.96936035 104.82684326 C2.9108849 105.9522236 -4.14850818 107.07148666 -11.20922661 108.18271065 C-14.49569698 108.70242648 -17.78067842 109.23089925 -21.06568909 109.75975037 C-38.577629 112.54501937 -55.58755042 113.46201463 -73.30244255 113.35709953 C-76.39585217 113.3393889 -79.48920797 113.32931077 -82.58265686 113.32118225 C-91.36594717 113.29700627 -100.14916411 113.26131473 -108.93237305 113.21655273 C-114.33897493 113.18952584 -119.74553595 113.17264614 -125.15219307 113.16168404 C-127.18960652 113.15554871 -129.22701278 113.14564021 -131.26438713 113.13160515 C-153.28497267 112.98117945 -170.487465 115.03719002 -190.2890625 125.25 C-199.33684768 129.84605999 -208.43866442 134.26946548 -217.6640625 138.5 C-230.56182793 144.4243149 -243.33081297 150.59597742 -256.07373047 156.84570312 C-262.74043806 160.11283479 -269.40286441 163.36870378 -276.1640625 166.4375 C-277.13609619 166.88198486 -278.10812988 167.32646973 -279.10961914 167.78442383 C-280.8129705 168.55717886 -282.52255676 169.31644224 -284.23999023 170.05737305 C-293.5837478 174.31289522 -297.47587579 181.96375462 -302.28955078 190.63232422 C-305.44982255 196.31642543 -308.89056459 201.83137958 -312.2890625 207.375 C-318.34917576 217.29578218 -324.30130957 227.27390579 -330.1640625 237.3125 C-330.87653977 238.53089447 -331.58910411 239.74923802 -332.30175781 240.9675293 C-333.67295651 243.31195036 -335.04405161 245.65643196 -336.41503906 248.00097656 C-337.0540918 249.0937793 -337.69314453 250.18658203 -338.3515625 251.3125 C-338.94936523 252.33569336 -339.54716797 253.35888672 -340.16308594 254.41308594 C-341.78109922 257.17561518 -343.40842828 259.93240706 -345.0390625 262.6875 C-345.49579346 263.47125 -345.95252441 264.255 -346.4230957 265.0625 C-346.85710693 265.79210937 -347.29111816 266.52171875 -347.73828125 267.2734375 C-348.10139404 267.89009277 -348.46450684 268.50674805 -348.83862305 269.14208984 C-353.60192623 275.97535841 -358.16735136 279.80242905 -365.67578125 283.45703125 C-366.5766597 283.91172287 -367.47753815 284.36641449 -368.40571594 284.83488464 C-371.27628736 286.27988041 -374.15704566 287.70299203 -377.0390625 289.125 C-378.92327481 290.06686295 -380.80674532 291.0102114 -382.68945312 291.95507812 C-385.49176063 293.36105552 -388.29437926 294.76633434 -391.09933472 296.16702271 C-397.34450895 299.28868465 -403.56083058 302.46041244 -409.74609375 305.69921875 C-410.87563728 306.28700859 -410.87563728 306.28700859 -412.02799988 306.88667297 C-422.92944185 312.21221248 -422.92944185 312.21221248 -430.3515625 321.3125 C-431.78286811 326.66001678 -431.71319599 331.34807062 -429.5078125 336.453125 C-426.84705681 340.7319078 -423.09834912 343.73023779 -418.3515625 345.3125 C-407.7251152 347.20294521 -399.43301282 342.13144843 -390.30078125 337.46484375 C-388.67250829 336.65060271 -387.04349126 335.83784807 -385.41377258 335.02650452 C-382.01371232 333.32780847 -378.6217555 331.61419037 -375.23510742 329.88891602 C-370.90944806 327.68632151 -366.56769694 325.51796605 -362.21962261 323.36002254 C-358.85822945 321.68798007 -355.50495156 320.00017462 -352.15397072 318.30737495 C-350.55627331 317.50211978 -348.95638069 316.70120396 -347.35422325 315.90485954 C-345.11157863 314.78665802 -342.88046086 313.64811592 -340.65112305 312.50366211 C-339.99802155 312.18285172 -339.34492004 311.86204132 -338.67202759 311.5315094 C-331.4377652 307.75619998 -327.33447238 301.68946836 -323.27734375 294.75390625 C-322.91596817 294.14085129 -322.55459259 293.52779633 -322.18226624 292.89616394 C-321.00316891 290.89276927 -319.83373772 288.88390754 -318.6640625 286.875 C-317.82773681 285.45105596 -316.9906451 284.02756159 -316.15283203 282.60449219 C-314.41377192 279.6490802 -312.67800487 276.69177377 -310.94482422 273.73291016 C-306.11935266 265.50018902 -301.24996734 257.29319627 -296.36328125 249.09667969 C-295.97461884 248.44472626 -295.58595642 247.79277283 -295.18551636 247.12106323 C-294.40538645 245.81261198 -293.62505322 244.50428193 -292.84451294 243.19607544 C-290.4807116 239.2283612 -288.14337638 235.24631758 -285.82391357 231.25253296 C-284.31001464 228.6525761 -282.78128044 226.06154243 -281.24957275 223.4720459 C-280.53709675 222.25973502 -279.83109038 221.04359385 -279.13226318 219.82336426 C-275.2475409 213.0469745 -271.87323352 207.25705705 -264.3515625 204.3125 C-261.4453125 203.6484375 -261.4453125 203.6484375 -258.8515625 203.6875 C-257.56765625 203.66816406 -257.56765625 203.66816406 -256.2578125 203.6484375 C-247.94440981 205.54800532 -243.38115325 211.20221925 -238.7265625 217.9375 C-237.51602611 219.6344008 -236.30507607 221.33100657 -235.09375 223.02734375 C-234.17287598 224.33227783 -234.17287598 224.33227783 -233.23339844 225.66357422 C-230.16357259 229.98474838 -227.00479948 234.23953242 -223.8515625 238.5 C-222.73686544 240.01423921 -221.62227745 241.52855871 -220.5078125 243.04296875 C-219.7175769 244.10004028 -219.7175769 244.10004028 -218.91137695 245.1784668 C-217.84486823 246.63759228 -216.81331048 248.12273971 -215.81323242 249.62817383 C-213.03478807 253.9407818 -213.03478807 253.9407818 -208.58984375 256.05078125 C-190.45693128 253.41194619 -172.26697601 248.60791625 -156.6640625 238.75 C-155.79914185 238.20424316 -155.79914185 238.20424316 -154.91674805 237.64746094 C-151.25551276 235.21572462 -148.47042129 233.17364529 -146.3515625 229.3125 C-146.35694573 225.11132847 -147.16013449 221.08138469 -147.9296875 216.9609375 C-148.23782379 215.14621445 -148.23782379 215.14621445 -148.55218506 213.29483032 C-149.21327904 209.42152799 -149.9056519 205.55468533 -150.6015625 201.6875 C-151.2782387 197.84110465 -151.94805999 193.99372626 -152.60809326 190.1444397 C-153.02017818 187.75060671 -153.44250688 185.35850659 -153.87677002 182.96859741 C-157.04254334 164.86570368 -157.04254334 164.86570368 -153.7265625 158.375 C-150.51571509 154.23469676 -147.30763275 151.96452342 -142.3515625 150.3125 C-139.84571754 150.27918586 -137.37123341 150.30447427 -134.86816406 150.37695312 C-133.26459554 150.41237351 -131.66100726 150.44690726 -130.05740356 150.48069763 C-129.19674412 150.49988188 -128.33608467 150.51906612 -127.44934464 150.53883171 C-79.03290896 151.52102361 -32.30582105 148.6509569 15.5234375 140.875 C16.74554428 140.67657501 17.96765106 140.47815002 19.22679138 140.27371216 C33.1820743 137.99842386 47.12199937 135.63871494 61.0380249 133.13406372 C63.79101474 132.63870564 66.54271214 132.1676098 69.30426025 131.72018433 C70.28296082 131.55978668 71.26166138 131.39938904 72.27001953 131.23413086 C73.04652863 131.11396103 73.82303772 130.9937912 74.62307739 130.86997986 C78.52342228 129.79641091 81.20671274 127.4637858 83.6484375 124.3125 C86.36105451 119.51923769 87.33507344 114.8055875 86.6484375 109.3125 C84.70930109 103.49509078 82.16741546 100.24812658 76.6484375 97.3125 C69.49773876 94.92893375 61.70249715 96.57583926 54.42553711 97.76538086 Z M62.76147461 168.046875 C61.72047104 168.20704102 60.67946747 168.36720703 59.60691833 168.53222656 C58.4746431 168.7072168 57.34236786 168.88220703 56.17578125 169.0625 C55.02300186 169.24006836 53.87022247 169.41763672 52.68251038 169.60058594 C48.98354417 170.17052206 45.2847397 170.74150055 41.5859375 171.3125 C39.08529701 171.69798509 36.5846461 172.08340266 34.08398438 172.46875 C27.93868087 173.41588188 21.79351001 174.36387067 15.6484375 175.3125 C15.60276069 177.72547629 15.56934634 180.13758093 15.54296875 182.55078125 C15.52882935 183.23112427 15.51468994 183.91146729 15.50012207 184.61242676 C15.45424232 190.20805694 16.12035732 193.02159168 19.6484375 197.3125 C24.85986986 202.3867894 30.32282443 203.60096595 37.4609375 203.625 C47.148489 203.51362241 47.148489 203.51362241 55.24609375 198.77734375 C61.41368966 190.50454177 67.20777159 177.58507433 68.6484375 167.3125 C66.6748386 167.3125 64.70627611 167.7469538 62.76147461 168.046875 Z M-35.56542969 183.28662109 C-43.66417036 184.68691968 -51.7391718 184.66764211 -59.9296875 184.7265625 C-61.5940645 184.74531426 -63.25843239 184.76489051 -64.92279053 184.7852478 C-69.26270124 184.83615234 -73.60264264 184.87599853 -77.94268799 184.91339111 C-82.38764778 184.95369502 -86.83248457 185.00466571 -91.27734375 185.0546875 C-99.96866536 185.15095196 -108.66004885 185.23551183 -117.3515625 185.3125 C-116.64884614 193.53743303 -115.68570109 201.68126241 -114.41455078 209.83764648 C-114.20578536 211.19657585 -114.00428984 212.55664186 -113.81005859 213.91772461 C-112.58663812 222.48063983 -110.92337017 229.87511318 -106.3515625 237.3125 C-105.80806152 238.19671631 -105.26456055 239.08093262 -104.70458984 239.99194336 C-102.89492176 242.85413276 -101.03857681 245.67989842 -99.1640625 248.5 C-98.49987305 249.50812744 -97.83568359 250.51625488 -97.15136719 251.55493164 C-95.22352995 254.47775904 -93.28835401 257.39560141 -91.3515625 260.3125 C-90.41247519 261.73418664 -89.47363687 263.1560378 -88.53515625 264.578125 C-78.76025465 279.35262326 -68.62990915 293.88483019 -58.3515625 308.3125 C-57.82804199 309.04758789 -57.30452148 309.78267578 -56.76513672 310.54003906 C-49.79410436 320.30839167 -42.65583572 329.92707362 -35.33203125 339.43359375 C-32.8286654 342.6833145 -30.36305936 345.95901901 -27.9140625 349.25 C-19.19755765 360.89856499 -10.21896485 372.3424088 -0.98999023 383.58886719 C2.99852367 388.46310115 6.85071318 393.42874897 10.57910156 398.50512695 C11.55663223 399.80968379 12.59688064 401.06684238 13.6484375 402.3125 C14.3084375 402.3125 14.9684375 402.3125 15.6484375 402.3125 C16.32883634 385.5671285 11.3172208 372.51877442 4.9609375 357.3125 C4.0967173 355.21534995 3.23394238 353.11760378 2.37255859 351.01928711 C0.63298132 346.7860112 -1.11343095 342.55566498 -2.86572266 338.32763672 C-6.05903308 330.61426213 -9.18896975 322.87562 -12.3142395 315.13449097 C-13.81640235 311.41418204 -15.3213288 307.6949971 -16.828125 303.9765625 C-17.11806839 303.26102707 -17.40801178 302.54549164 -17.70674133 301.80827332 C-19.50054949 297.38886503 -21.31235196 292.97724571 -23.13735962 288.57063293 C-24.34401391 285.65593491 -25.54495156 282.73889567 -26.7456665 279.82174683 C-27.3039134 278.47047722 -27.86509746 277.1204162 -28.42962646 275.77175903 C-42.33977803 242.53877013 -36.42335466 215.25359878 -25.3515625 182.3125 C-28.91724132 182.21264978 -32.07529968 182.57901195 -35.56542969 183.28662109 Z M-137.9765625 268.875 C-157.56702132 281.25184291 -180.55602747 287.28520451 -203.3515625 290.3125 C-203.70347656 291.42625 -204.05539062 292.54 -204.41796875 293.6875 C-212.40397728 318.57195756 -224.20701565 340.68372155 -240.3515625 361.3125 C-241.03605469 362.19679688 -241.72054688 363.08109375 -242.42578125 363.9921875 C-244.36939727 366.46014617 -246.35018681 368.89117592 -248.3515625 371.3125 C-249.54458984 372.7665625 -249.54458984 372.7665625 -250.76171875 374.25 C-262.52937914 388.45508948 -275.18478528 402.42507022 -289.19921875 414.44140625 C-291.73208412 416.64329829 -294.19488772 418.91445826 -296.6640625 421.1875 C-302.06647707 426.1082178 -307.65325109 430.74042553 -313.3515625 435.3125 C-314.47176766 436.22475289 -315.59153955 437.13753803 -316.7109375 438.05078125 C-326.67623581 446.14597103 -336.93825888 453.80466198 -347.3515625 461.3125 C-348.56851807 462.19107666 -348.56851807 462.19107666 -349.81005859 463.08740234 C-400.13165388 499.26260515 -455.5748623 524.84401128 -516.3515625 537.3125 C-515.62321941 550.28386591 -509.91477555 560.66435498 -501.3515625 570.3125 C-500.84367187 570.91320312 -500.33578125 571.51390625 -499.8125 572.1328125 C-487.17788901 586.01221275 -464.40126751 594.42599782 -445.81445312 595.45263672 C-424.23194174 596.17806896 -407.04137015 593.63639256 -388.5324707 582.18725586 C-382.95540995 578.77605868 -378.718324 578.53842565 -372.3515625 579.3125 C-368.4218017 580.62242027 -365.92776488 582.64463716 -362.9140625 585.375 C-339.39549122 606.52382931 -309.62725292 614.57955702 -278.56005859 613.5078125 C-253.67482174 611.99296016 -230.36891734 599.98873296 -211.75439453 583.93505859 C-206.60153906 579.5149268 -202.84498717 578.89854842 -196.2109375 578.96875 C-191.722814 579.50830583 -188.66751523 581.29799751 -185.3515625 584.3125 C-183.95042634 586.26559888 -182.61816783 588.26958818 -181.3515625 590.3125 C-168.95071779 606.10216414 -146.20991718 610.99870673 -127.3515625 613.3125 C-121.44136579 613.79888138 -115.52766174 613.79862204 -109.6015625 613.75 C-108.43099808 613.74593643 -108.43099808 613.74593643 -107.23678589 613.74179077 C-82.96411784 613.61447845 -57.82597991 609.56313988 -39.34765625 592.40234375 C-37.40214335 590.36545647 -35.7476674 588.28276634 -34.1015625 586 C-31.78438715 582.80367953 -30.18798628 580.67656179 -26.3515625 579.3125 C-19.70944295 578.59938901 -15.24825076 579.04745394 -9.3515625 582.3125 C0.16203284 587.44436432 8.98594163 591.15651243 19.6484375 593.3125 C20.48834229 593.48910156 21.32824707 593.66570312 22.19360352 593.84765625 C30.89965863 595.50496597 39.50870473 595.71368565 48.3359375 595.6875 C49.46536774 595.68568726 49.46536774 595.68568726 50.61761475 595.68383789 C73.05217536 595.58602924 93.19162326 590.49549038 109.6484375 574.3125 C112.98023023 570.56497555 116.05104196 567.10468662 117.6484375 562.3125 C113.82766312 558.40027091 109.99842291 554.55060867 105.8359375 551 C101.50585686 547.28242585 97.53834968 543.23590403 93.5546875 539.15625 C91.38991115 536.98609341 89.12912437 534.96727597 86.80859375 532.96484375 C82.55127441 529.27650735 78.55611656 525.36828389 74.5859375 521.375 C73.91755859 520.71048828 73.24917969 520.04597656 72.56054688 519.36132812 C69.30695125 516.1014087 66.15943067 512.79797344 63.15234375 509.30859375 C59.51893048 505.09799094 55.61709984 501.20513433 51.6484375 497.3125 C47.01773241 492.77050574 42.56595326 488.16557385 38.33203125 483.25 C35.68092477 480.19907467 32.9127086 477.26058346 30.1484375 474.3125 C25.55592345 469.38722328 21.03943791 464.41893835 16.6484375 459.3125 C15.68668209 458.20400681 14.72438806 457.09598085 13.76171875 455.98828125 C6.35377789 447.46121139 -1.01962111 438.90500352 -8.3515625 430.3125 C-8.83399414 429.74756836 -9.31642578 429.18263672 -9.81347656 428.60058594 C-15.01677196 422.50149793 -20.16403525 416.36878442 -25.140625 410.08203125 C-26.8498717 407.94094307 -28.57361348 405.81605253 -30.3125 403.69921875 C-36.30057126 396.40235849 -42.13972938 389.0322609 -47.76293945 381.45019531 C-51.52670932 376.38266 -55.39169149 371.40276139 -59.2890625 366.4375 C-65.66442525 358.29110592 -71.74754243 349.9598366 -77.75585938 341.54052734 C-79.32514179 339.34939036 -80.90616941 337.16732789 -82.4921875 334.98828125 C-93.36781079 320.04145203 -104.00065116 304.93059256 -114.19140625 289.5078125 C-114.94087776 288.37530815 -114.94087776 288.37530815 -115.70549011 287.21992493 C-118.20201856 283.44579731 -120.69019479 279.6665664 -123.16577148 275.87866211 C-124.07902854 274.49317138 -124.99251057 273.1078289 -125.90625 271.72265625 C-126.32635849 271.07382477 -126.74646698 270.42499329 -127.17930603 269.75650024 C-128.18480827 268.23944768 -129.2614943 266.76997541 -130.3515625 265.3125 C-133.48970011 265.3125 -135.37551466 267.17431487 -137.9765625 268.875 Z " fill="#010101" transform="translate(645.3515625,207.6875)"/>
<path d="M0 0 C2.48829665 1.92065398 4.81421552 3.92437176 7.125 6.0546875 C7.97707031 6.82683594 8.82914063 7.59898437 9.70703125 8.39453125 C24.71675103 22.63913788 32.89496384 41.85434585 34.36328125 62.38671875 C34.80575732 83.13651749 28.48613715 103.71555176 14.125 119.0546875 C12.89136719 120.42367187 12.89136719 120.42367187 11.6328125 121.8203125 C-3.02106468 137.36616481 -22.8441836 145.92743149 -44.09765625 147.0546875 C-64.10442668 147.0546875 -82.51656288 141.14299066 -97.875 128.0546875 C-98.60203125 127.48363281 -99.3290625 126.91257812 -100.078125 126.32421875 C-115.179538 113.94211613 -124.29760829 95.22454014 -126.875 76.0546875 C-128.83521305 55.06021678 -124.15864095 34.90794537 -111.25 17.9921875 C-110.13405265 16.67198193 -109.00985313 15.35867739 -107.875 14.0546875 C-107.441875 13.47976562 -107.00875 12.90484375 -106.5625 12.3125 C-81.56720938 -19.97308372 -31.97689931 -21.63654328 0 0 Z M-82.0859375 38.625 C-89.9321462 49.28076815 -92.15440885 61.04309953 -90.875 74.0546875 C-88.289335 86.80671717 -80.8054749 97.60103757 -70 104.8046875 C-59.58732329 110.85718027 -47.3951784 112.49882575 -35.625 109.8984375 C-23.99697017 106.33074653 -13.64394116 99.69770418 -7.79443359 88.83349609 C-1.98173934 77.19267293 0.10730494 66.19052872 -3.5 53.4296875 C-7.98563359 40.34789198 -15.41407299 31.70569349 -27.5390625 25.0625 C-47.03491378 16.65124644 -68.64977714 22.72643575 -82.0859375 38.625 Z " fill="#020202" transform="translate(376.875,174.9453125)"/>
<path d="M0 0 C2.47018504 1.91277079 4.78832407 3.907786 7.08984375 6.01953125 C7.84523438 6.68339844 8.600625 7.34726562 9.37890625 8.03125 C24.33923773 21.93767497 32.82306564 42.06835851 34.25 62.2890625 C34.96623307 83.05982156 27.70227369 103.99545131 13.65234375 119.33203125 C11.82607602 121.25912642 9.96643943 123.14020001 8.08984375 125.01953125 C7.43242188 125.68855469 6.775 126.35757813 6.09765625 127.046875 C-10.36029826 142.62189203 -31.52406575 146.54854558 -53.35546875 146.29296875 C-73.37265688 145.71812201 -92.5146094 135.5598784 -106.19921875 121.07421875 C-122.27970498 101.7629499 -129.02000846 79.98925545 -126.91015625 55.01953125 C-125.13416842 40.59579677 -118.42292952 25.99402334 -108.91015625 15.01953125 C-108.27851563 14.23449219 -107.646875 13.44945313 -106.99609375 12.640625 C-80.5836647 -18.81417687 -33.13804691 -22.55166414 0 0 Z M-75.91015625 32.01953125 C-76.52632813 32.49777344 -77.1425 32.97601563 -77.77734375 33.46875 C-84.39375884 39.30589842 -89.80716738 49.24877638 -90.91015625 58.01953125 C-91.53353852 68.01408627 -91.58845462 76.91430576 -86.91015625 86.01953125 C-86.44738281 86.9425 -85.98460937 87.86546875 -85.5078125 88.81640625 C-79.80820527 98.90568652 -70.74487882 105.91268832 -59.6875 109.37109375 C-46.93481327 112.34851428 -35.2720914 111.02128439 -23.734375 104.77734375 C-12.21482019 97.60749636 -5.30462928 87.25046147 -2.22265625 74.08203125 C-0.82896639 60.42387062 -3.66827278 48.190084 -11.91015625 37.01953125 C-18.65707983 29.48400621 -28.70500984 22.89194794 -38.99047852 21.79833984 C-53.32114191 21.07557863 -64.36751339 23.00047001 -75.91015625 32.01953125 Z " fill="#020202" transform="translate(519.91015625,49.98046875)"/>
</svg>
