<svg xmlns="http://www.w3.org/2000/svg" width="189" height="266" viewBox="0 0 189 266">
<g>
<path d="M 189.00 266.00 L 0.00 266.00 L 56.25 265.99 L 112.50 265.98 L 108.00 263.41 C105.53,262.00 103.35,260.43 103.17,259.93 C102.55,258.22 100.24,258.98 99.70,261.06 C99.22,262.87 98.91,262.96 97.08,261.82 C95.47,260.81 94.58,260.78 93.13,261.69 C91.77,262.53 90.95,262.55 90.16,261.76 C89.56,261.16 88.27,260.61 87.28,260.54 C86.30,260.47 84.28,259.19 82.79,257.70 C80.79,255.70 79.09,255.00 76.22,255.00 C73.35,255.00 71.72,254.33 69.92,252.41 C68.01,250.37 66.84,249.93 64.36,250.33 C62.43,250.64 60.38,250.26 59.06,249.33 C56.43,247.49 54.00,248.25 54.00,250.91 C54.00,253.71 51.97,254.61 51.32,252.10 C51.01,250.95 50.48,250.00 50.13,250.01 C49.79,250.02 46.59,252.06 43.03,254.54 C36.29,259.25 35.01,259.45 28.13,256.85 C25.78,255.97 25.79,255.93 29.63,253.11 C39.29,246.00 40.55,243.28 45.48,219.00 C47.33,209.93 49.14,201.26 49.53,199.75 C50.75,194.90 48.53,196.81 46.64,202.25 C45.63,205.14 40.56,215.42 35.38,225.11 C26.90,240.93 25.71,242.67 23.66,242.28 C21.77,241.91 21.05,242.58 19.45,246.17 C16.58,252.59 10.48,258.82 6.29,259.61 C2.22,260.37 1.04,259.19 1.02,254.33 C1.00,251.92 2.32,249.61 6.50,244.72 C11.27,239.13 12.00,237.72 12.00,234.07 C12.00,229.60 13.10,226.77 16.12,223.44 C17.15,222.31 20.07,214.43 22.60,205.94 C27.97,188.01 27.76,188.46 33.46,182.04 C36.85,178.23 38.10,175.82 39.03,171.31 C39.69,168.11 41.37,162.35 42.75,158.51 C44.99,152.28 45.20,150.52 44.66,142.51 C44.33,137.55 43.76,131.36 43.39,128.75 C42.92,125.35 43.07,124.00 43.93,124.00 C44.62,124.00 44.90,124.75 44.59,125.75 C44.29,126.71 44.52,128.18 45.10,129.00 C46.38,130.83 45.40,119.17 43.94,115.34 C43.42,113.98 43.00,110.18 43.00,106.90 C43.00,103.62 42.33,99.32 41.50,97.35 C40.41,94.73 40.18,91.94 40.65,86.91 C41.19,81.09 41.03,79.95 39.64,79.42 C38.56,79.00 38.00,77.61 38.00,75.37 C38.00,71.56 37.44,71.19 27.75,68.53 C24.40,67.61 20.50,65.62 18.38,63.76 C14.81,60.62 14.77,60.50 15.26,54.39 C15.53,50.98 16.47,47.17 17.35,45.91 C18.83,43.80 18.79,43.39 16.81,40.07 C15.64,38.11 13.74,35.45 12.59,34.17 C10.52,31.86 10.52,31.83 12.47,30.40 C13.55,29.61 16.13,28.50 18.20,27.95 C20.27,27.39 22.45,26.02 23.05,24.91 C23.65,23.79 24.64,23.05 25.25,23.25 C26.88,23.79 28.84,29.88 28.92,34.70 C28.99,38.35 29.49,39.26 32.75,41.67 C34.81,43.19 38.13,45.86 40.12,47.60 C45.46,52.26 50.23,53.59 54.45,51.59 C56.29,50.72 58.93,50.00 60.31,50.00 C65.00,50.00 74.11,45.84 75.10,43.25 C75.88,41.18 76.44,40.94 79.13,41.53 C82.61,42.29 82.54,41.93 78.09,36.28 C76.69,34.51 74.27,32.78 72.71,32.44 C69.51,31.73 68.13,29.04 68.01,23.30 C67.88,16.71 69.53,10.51 72.62,5.93 L 75.60 1.50 L 82.05 1.53 C93.53,1.59 99.01,6.17 99.00,15.72 C98.99,18.25 98.00,20.98 95.98,24.00 C94.33,26.48 92.69,30.22 92.35,32.33 C91.88,35.20 91.09,36.40 89.19,37.12 C86.73,38.05 84.10,40.69 84.03,42.29 C84.01,42.72 84.94,42.57 86.08,41.96 C89.16,40.31 91.19,41.50 90.82,44.74 C90.60,46.59 90.01,47.38 89.00,47.14 C84.02,45.96 80.31,45.99 78.66,47.23 C76.30,48.99 74.72,57.12 76.05,60.62 C76.88,62.82 77.46,63.13 79.77,62.58 C81.27,62.23 84.41,61.67 86.73,61.34 C89.06,61.01 91.37,60.24 91.86,59.62 C92.35,59.00 93.24,55.62 93.85,52.11 C94.45,48.59 95.10,45.57 95.29,45.38 C95.47,45.19 99.07,46.27 103.27,47.77 C110.41,50.32 111.04,50.39 112.59,48.83 C115.43,46.00 113.71,42.42 108.76,40.83 C105.44,39.77 104.56,39.04 104.77,37.49 C104.92,36.39 105.17,33.84 105.32,31.80 C105.51,29.18 106.38,27.49 108.30,25.98 C109.78,24.81 111.00,23.22 111.00,22.44 C111.00,20.49 119.31,12.00 121.21,12.00 C122.07,12.00 124.06,12.67 125.64,13.49 C127.21,14.32 129.27,14.99 130.20,14.99 C133.19,15.00 136.75,17.15 137.87,19.61 C138.47,20.92 139.49,22.00 140.15,22.00 C142.30,22.00 145.00,25.26 145.00,27.84 C145.00,29.34 143.35,32.33 140.93,35.19 C138.26,38.37 137.06,40.62 137.44,41.80 C137.88,43.19 137.08,43.92 133.82,45.11 C127.94,47.25 126.93,49.23 130.03,52.54 C132.03,54.67 133.13,55.07 135.80,54.64 C137.61,54.35 142.79,54.76 147.30,55.55 C151.81,56.35 159.23,57.00 163.80,57.00 C172.88,57.00 178.00,58.76 178.00,61.87 C178.00,65.32 169.83,70.00 163.81,70.00 C159.73,70.00 157.48,71.42 156.05,74.89 C154.96,77.52 155.28,79.31 158.86,90.68 C172.04,132.49 172.82,135.92 170.43,141.89 C169.08,145.26 168.97,146.63 169.87,148.62 C171.33,151.82 181.34,165.53 185.21,169.64 C188.52,173.14 188.49,173.17 181.50,175.00 C175.16,176.65 173.19,178.37 172.42,182.89 C172.07,184.93 170.73,187.41 169.33,188.59 C167.36,190.26 166.61,192.30 165.64,198.59 C164.70,204.63 164.02,206.57 162.71,206.82 C160.58,207.23 160.57,208.04 162.66,212.41 C164.24,215.73 164.22,216.16 162.16,221.53 C159.38,228.79 159.44,232.27 162.46,240.31 C165.57,248.56 166.85,259.34 164.87,260.61 C164.12,261.09 159.23,261.52 154.00,261.57 C145.43,261.66 136.87,262.74 127.00,264.99 C124.99,265.45 137.40,265.84 156.25,265.90 L 189.00 266.00 ZM 142.56 157.47 C146.05,168.01 146.53,168.90 147.28,166.34 C148.92,160.82 148.47,122.36 146.58,106.50 C145.60,98.25 144.60,91.30 144.36,91.05 C144.12,90.80 142.49,91.13 140.74,91.79 C138.07,92.80 137.32,92.74 136.03,91.39 C134.64,89.94 134.71,89.85 136.70,90.44 C139.85,91.39 143.00,87.93 143.00,83.53 C143.00,80.63 142.47,79.78 139.81,78.40 C137.35,77.13 136.21,77.01 134.83,77.88 C133.84,78.49 131.29,79.00 129.16,79.00 C124.08,79.00 118.50,82.69 118.49,86.05 C118.49,87.40 117.67,89.71 116.67,91.19 C114.49,94.40 114.81,98.88 117.32,100.40 C118.86,101.33 119.74,100.78 123.17,96.75 C125.39,94.14 127.84,92.00 128.60,92.00 C130.46,92.00 130.37,92.86 128.00,97.76 C126.90,100.04 126.00,102.64 126.00,103.54 C126.00,104.44 127.66,108.85 129.70,113.34 C133.02,120.68 133.41,122.42 133.56,130.69 C133.71,138.88 134.00,140.21 136.20,142.82 C137.56,144.44 140.42,151.03 142.56,157.47 ZM 73.64 98.25 C72.57,100.44 73.84,100.50 76.84,98.40 C78.15,97.48 80.36,96.97 81.98,97.21 C84.46,97.57 84.90,97.25 85.41,94.69 C85.74,93.07 86.00,89.40 86.00,86.52 C86.00,83.65 86.50,79.86 87.12,78.10 C87.73,76.34 88.07,74.74 87.87,74.55 C87.66,74.36 84.64,74.05 81.14,73.85 L 74.78 73.50 L 74.64 85.00 C74.56,91.32 74.11,97.29 73.64,98.25 ZM 82.98 120.68 C88.62,123.00 96.64,123.85 95.50,122.00 C95.16,121.45 94.00,121.00 92.91,121.00 C90.59,121.00 81.35,116.43 75.09,112.20 C68.58,107.79 58.51,97.43 53.26,89.76 C50.73,86.05 48.44,83.23 48.17,83.49 C46.90,84.77 55.16,98.04 61.37,104.68 C69.26,113.14 75.03,117.41 82.98,120.68 ZM 156.62 144.25 C156.93,146.86 157.44,149.00 157.75,149.00 C158.93,149.00 156.93,120.99 154.96,110.00 C153.83,103.68 152.64,97.03 152.32,95.23 C152.00,93.42 151.27,91.67 150.71,91.32 C150.04,90.91 149.92,92.04 150.35,94.59 C151.85,103.37 154.89,125.95 155.45,132.50 C155.78,136.35 156.30,141.64 156.62,144.25 ZM 55.46 133.25 C56.89,138.06 58.53,142.00 59.10,142.00 C59.67,142.00 59.92,141.21 59.65,140.25 C59.38,139.29 56.37,128.38 52.96,116.00 C46.77,93.59 45.09,88.58 45.03,92.37 C45.00,94.34 49.22,112.33 51.51,120.00 C52.25,122.47 54.03,128.44 55.46,133.25 ZM 55.91 85.12 C58.43,88.21 60.78,90.58 61.11,90.39 C61.45,90.20 60.99,86.78 60.08,82.78 C58.32,75.02 57.72,74.50 50.13,74.12 C47.79,74.00 47.78,74.02 49.55,76.75 C50.52,78.26 53.39,82.03 55.91,85.12 ZM 108.07 78.25 C108.03,80.31 108.45,82.00 109.00,82.00 C110.19,82.00 110.19,79.28 109.00,76.50 C108.31,74.90 108.13,75.24 108.07,78.25 ZM 47.62 146.17 L 48.43 148.50 L 48.79 146.16 C49.17,143.75 48.45,142.22 47.41,143.26 C47.08,143.58 47.18,144.90 47.62,146.17 ZM 62.45 155.91 C63.48,157.59 64.00,157.21 64.00,154.80 C64.00,153.18 63.70,152.90 62.89,153.71 C62.28,154.32 62.08,155.31 62.45,155.91 Z" fill="rgb(1,1,1)"/>
<path d="M 42.35 100.41 C42.09,100.15 41.73,100.12 41.25,100.21 C39.72,100.46 39.54,99.78 39.84,94.86 C40.04,91.34 39.74,88.96 39.02,88.51 C38.38,88.12 37.94,86.15 38.03,84.15 C38.11,82.33 38.14,79.24 38.11,76.92 C38.32,78.26 38.84,79.11 39.64,79.42 C41.03,79.95 41.19,81.09 40.65,86.91 C40.18,91.94 40.41,94.73 41.50,97.35 C41.82,98.10 42.11,99.18 42.35,100.41 ZM 0.00 0.00 L 189.00 0.00 L 135.75 0.07 C86.80,0.13 82.90,0.26 87.40,1.64 C88.77,2.06 89.97,2.48 91.03,2.91 C88.60,2.00 85.62,1.55 82.05,1.53 L 76.13 1.50 C76.34,1.34 76.53,1.21 76.72,1.10 C77.97,0.37 66.81,0.05 39.25,0.03 ZM 0.00 126.20 C0.00,195.61 0.37,251.97 0.82,251.45 C2.03,250.06 3.10,248.82 4.06,247.71 C1.79,250.67 1.01,252.47 1.02,254.33 C1.02,256.06 1.18,257.32 1.56,258.19 C1.40,258.07 1.21,258.00 1.00,258.00 C0.45,258.00 0.00,259.80 0.00,262.00 L 0.00 126.20 ZM 44.53 117.40 C44.32,117.39 44.01,117.58 43.58,117.93 C42.45,118.87 42.03,118.68 41.48,116.95 C41.11,115.77 41.30,114.30 41.90,113.70 C42.48,113.12 42.97,109.97 43.00,106.61 C43.00,106.71 43.00,106.81 43.00,106.90 C43.00,110.18 43.42,113.98 43.94,115.34 C44.15,115.89 44.35,116.59 44.53,117.40 ZM 44.06 134.99 C43.52,130.01 42.85,125.26 42.39,123.75 C42.05,122.60 42.40,122.00 43.43,122.00 C44.37,122.00 44.91,121.23 44.99,119.78 C45.20,121.04 45.37,122.38 45.49,123.63 C45.36,123.82 45.19,124.20 44.97,124.75 C44.68,125.47 44.51,126.35 44.48,127.12 C44.43,126.63 44.47,126.15 44.59,125.75 C44.90,124.75 44.62,124.00 43.93,124.00 C43.07,124.00 42.92,125.35 43.39,128.75 C43.58,130.10 43.83,132.40 44.06,134.99 ZM 108.07 78.25 C108.13,75.24 108.31,74.90 109.00,76.50 C110.19,79.28 110.19,82.00 109.00,82.00 C108.45,82.00 108.03,80.31 108.07,78.25 ZM 47.62 146.17 C47.18,144.90 47.08,143.58 47.41,143.26 C48.45,142.22 49.17,143.75 48.79,146.16 L 48.43 148.50 ZM 62.45 155.91 C62.08,155.31 62.28,154.32 62.89,153.71 C63.70,152.90 64.00,153.18 64.00,154.80 C64.00,157.21 63.48,157.59 62.45,155.91 ZM 42.75 158.51 C41.37,162.35 39.69,168.11 39.03,171.31 C39.69,168.11 41.31,162.52 42.62,158.88 C43.69,155.89 44.61,151.87 44.90,149.03 C44.81,152.28 44.22,154.44 42.75,158.51 ZM 92.87 3.74 C95.66,5.16 97.08,6.80 97.93,9.22 C98.65,11.30 99.01,13.25 98.99,15.14 C98.87,9.67 96.86,5.90 92.87,3.74 ZM 1.98 258.90 C2.53,259.58 3.36,259.85 4.54,259.82 C2.87,259.98 2.00,259.75 2.00,259.13 C2.00,259.05 1.99,258.98 1.98,258.90 ZM 10.84 257.26 C13.22,255.43 15.64,252.71 17.53,249.72 C15.65,252.82 13.28,255.47 10.84,257.26 ZM 68.28 26.70 C67.88,24.57 67.85,21.91 68.21,18.77 C68.05,20.25 67.98,21.76 68.01,23.30 C68.04,24.58 68.13,25.71 68.28,26.70 ZM 68.44 17.03 C68.54,16.37 68.65,15.69 68.78,15.00 C69.04,13.64 69.54,12.10 70.20,10.54 C69.40,12.55 68.80,14.74 68.44,17.03 ZM 71.99 6.90 C72.74,5.59 73.55,4.37 74.34,3.37 L 72.62 5.93 C72.40,6.25 72.19,6.57 71.99,6.90 ZM 20.11 244.76 C21.29,242.40 22.05,241.97 23.66,242.28 C22.15,241.99 21.37,242.42 20.11,244.76 ZM 37.91 73.70 C37.69,72.60 37.20,71.88 36.00,71.22 C37.27,71.90 37.74,72.61 37.91,73.70 Z" fill="rgb(72,72,72)"/>
<path d="M 42.35 100.41 C42.72,102.34 42.98,104.64 43.00,106.61 C42.98,108.06 42.89,109.47 42.73,110.65 C42.51,110.26 42.13,110.00 41.60,110.00 C40.32,110.00 40.16,109.84 40.11,99.99 C40.35,100.27 40.72,100.30 41.25,100.21 C41.73,100.12 42.09,100.15 42.35,100.41 ZM 82.98 120.68 C80.98,119.86 79.12,118.97 77.33,117.97 C75.09,116.73 72.95,115.29 70.77,113.57 C67.80,111.22 64.78,108.34 61.37,104.68 C64.78,108.34 67.81,111.22 70.77,113.57 C72.94,115.28 75.08,116.72 77.33,117.97 C79.08,118.95 80.89,119.80 82.81,120.59 C85.76,121.79 89.07,122.53 90.16,122.25 C91.52,121.89 90.43,120.90 85.59,118.24 C88.93,119.88 91.77,121.00 92.91,121.00 C94.00,121.00 95.16,121.45 95.50,122.00 C96.64,123.85 88.62,123.00 82.98,120.68 ZM 44.53 117.40 C44.70,118.13 44.85,118.94 44.99,119.78 C44.91,121.23 44.37,122.00 43.43,122.00 C43.02,122.00 42.71,122.10 42.52,122.29 C42.37,120.92 42.05,119.04 41.73,117.64 C42.18,118.71 42.63,118.73 43.58,117.93 C44.01,117.58 44.32,117.39 44.53,117.40 ZM 45.10 129.00 C44.76,128.52 44.54,127.81 44.48,127.12 C44.51,126.35 44.68,125.47 44.97,124.75 C45.19,124.20 45.36,123.82 45.49,123.63 C45.82,127.11 45.79,129.98 45.10,129.00 ZM 89.38 2.29 C88.76,2.07 88.10,1.86 87.40,1.64 C82.98,0.29 86.66,0.14 133.18,0.07 C97.04,0.14 85.20,0.44 87.00,1.24 C87.61,1.50 88.46,1.88 89.38,2.29 ZM 76.63 113.21 C75.06,112.26 73.81,111.46 73.18,110.97 C70.98,109.29 68.25,106.78 65.46,103.98 C68.89,107.35 72.31,110.32 75.09,112.20 C75.59,112.53 76.10,112.87 76.63,113.21 ZM 39.88 91.90 C39.68,90.04 39.34,88.71 38.96,88.48 C38.36,88.10 37.94,86.15 38.03,84.15 C37.94,86.15 38.38,88.12 39.02,88.51 C39.51,88.82 39.81,90.03 39.88,91.90 ZM 44.06 134.99 C44.08,135.18 44.10,135.37 44.11,135.56 C44.05,135.05 43.99,134.52 43.92,133.97 C43.64,131.81 43.36,129.53 43.12,127.55 C43.43,129.64 43.77,132.28 44.06,134.99 ZM 97.74 8.73 C98.48,10.29 98.89,12.06 98.95,13.93 C98.84,12.42 98.50,10.86 97.93,9.22 C97.87,9.05 97.81,8.89 97.74,8.73 ZM 44.90 147.24 C44.92,147.88 44.92,148.47 44.90,149.03 C44.83,149.69 44.73,150.41 44.60,151.17 C44.77,149.92 44.87,148.63 44.90,147.24 ZM 41.31 115.27 C41.30,114.44 41.51,113.80 41.92,113.55 C41.97,113.52 42.03,113.48 42.08,113.44 C42.02,113.55 41.96,113.64 41.90,113.70 C41.57,114.03 41.37,114.61 41.31,115.27 Z" fill="rgb(168,168,168)"/>
<path d="M 0.00 262.00 C0.00,259.80 0.45,258.00 1.00,258.00 C1.55,258.00 2.00,258.51 2.00,259.13 C2.00,259.87 3.26,260.06 5.67,259.67 C10.33,258.91 15.93,253.56 19.07,246.86 C21.03,242.66 21.78,241.92 23.68,242.28 C25.71,242.67 26.93,240.87 35.38,225.11 C40.56,215.42 45.63,205.14 46.64,202.25 C48.53,196.81 50.75,194.90 49.53,199.75 C49.14,201.26 47.33,209.93 45.48,219.00 C40.55,243.28 39.29,246.00 29.63,253.11 C25.79,255.93 25.78,255.97 28.13,256.85 C35.01,259.45 36.29,259.25 43.03,254.54 C46.59,252.06 49.79,250.02 50.13,250.01 C50.48,250.00 51.01,250.95 51.32,252.10 C51.97,254.61 54.00,253.71 54.00,250.91 C54.00,248.25 56.43,247.49 59.06,249.33 C60.38,250.26 62.43,250.64 64.36,250.33 C66.84,249.93 68.01,250.37 69.92,252.41 C71.72,254.33 73.35,255.00 76.22,255.00 C79.09,255.00 80.79,255.70 82.79,257.70 C84.28,259.19 86.30,260.47 87.28,260.54 C88.27,260.61 89.56,261.16 90.16,261.76 C90.95,262.55 91.77,262.53 93.13,261.69 C94.58,260.78 95.47,260.81 97.08,261.82 C98.91,262.96 99.22,262.87 99.70,261.06 C100.24,258.98 102.55,258.22 103.17,259.93 C103.35,260.43 105.53,262.00 108.00,263.41 L 112.50 265.98 L 56.25 265.99 L 0.00 266.00 L 0.00 262.00 ZM 127.00 264.99 C136.87,262.74 145.43,261.66 154.00,261.57 C159.23,261.52 164.12,261.09 164.87,260.61 C166.85,259.34 165.57,248.56 162.46,240.31 C159.44,232.27 159.38,228.79 162.16,221.53 C164.22,216.16 164.24,215.73 162.66,212.41 C160.57,208.04 160.58,207.23 162.71,206.82 C164.02,206.57 164.70,204.63 165.64,198.59 C166.61,192.30 167.36,190.26 169.33,188.59 C170.73,187.41 172.07,184.93 172.42,182.89 C173.19,178.37 175.16,176.65 181.50,175.00 C188.49,173.17 188.52,173.14 185.21,169.64 C181.34,165.53 171.33,151.82 169.87,148.62 C168.97,146.63 169.08,145.26 170.43,141.89 C172.82,135.92 172.04,132.49 158.86,90.68 C155.28,79.31 154.96,77.52 156.05,74.89 C157.48,71.42 159.73,70.00 163.81,70.00 C169.83,70.00 178.00,65.32 178.00,61.87 C178.00,58.76 172.88,57.00 163.80,57.00 C159.23,57.00 151.81,56.35 147.30,55.55 C142.79,54.76 137.61,54.35 135.80,54.64 C133.13,55.07 132.03,54.67 130.03,52.54 C126.93,49.23 127.94,47.25 133.82,45.11 C137.08,43.92 137.88,43.19 137.44,41.80 C137.06,40.62 138.26,38.37 140.93,35.19 C143.35,32.33 145.00,29.34 145.00,27.84 C145.00,25.26 142.30,22.00 140.15,22.00 C139.49,22.00 138.47,20.92 137.87,19.61 C136.75,17.15 133.19,15.00 130.20,14.99 C129.27,14.99 127.21,14.32 125.64,13.49 C124.06,12.67 122.07,12.00 121.21,12.00 C119.31,12.00 111.00,20.49 111.00,22.44 C111.00,23.22 109.78,24.81 108.30,25.98 C106.38,27.49 105.51,29.18 105.32,31.80 C105.17,33.84 104.92,36.39 104.77,37.49 C104.56,39.04 105.44,39.77 108.76,40.83 C113.71,42.42 115.43,46.00 112.59,48.83 C111.04,50.39 110.41,50.32 103.27,47.77 C99.07,46.27 95.47,45.19 95.29,45.38 C95.10,45.57 94.45,48.59 93.85,52.11 C93.24,55.62 92.35,59.00 91.86,59.62 C91.37,60.24 89.06,61.01 86.73,61.34 C84.41,61.67 81.27,62.23 79.77,62.58 C77.46,63.13 76.88,62.82 76.05,60.62 C74.72,57.12 76.30,48.99 78.66,47.23 C80.31,45.99 84.02,45.96 89.00,47.14 C90.01,47.38 90.60,46.59 90.82,44.74 C91.19,41.50 89.16,40.31 86.08,41.96 C84.94,42.57 84.01,42.72 84.03,42.29 C84.10,40.69 86.73,38.05 89.19,37.12 C91.09,36.40 91.88,35.20 92.35,32.33 C92.69,30.22 94.33,26.48 95.98,24.00 C100.99,16.50 99.50,6.79 92.87,3.84 C91.02,3.01 88.38,1.84 87.00,1.24 C85.14,0.42 97.81,0.12 136.75,0.07 L 189.00 0.00 L 189.00 133.00 L 189.00 266.00 L 156.25 265.90 C137.40,265.84 124.99,265.45 127.00,264.99 ZM 0.00 126.20 L 0.00 0.00 L 39.25 0.03 C66.81,0.05 77.97,0.37 76.72,1.10 C73.90,2.74 69.71,10.09 68.78,15.00 C66.88,25.14 68.30,31.47 72.71,32.44 C74.27,32.78 76.69,34.51 78.09,36.28 C82.54,41.93 82.61,42.29 79.13,41.53 C76.44,40.94 75.88,41.18 75.10,43.25 C74.11,45.84 65.00,50.00 60.31,50.00 C58.93,50.00 56.29,50.72 54.45,51.59 C50.23,53.59 45.46,52.26 40.12,47.60 C38.13,45.86 34.81,43.19 32.75,41.67 C29.49,39.26 28.99,38.35 28.92,34.70 C28.84,29.88 26.88,23.79 25.25,23.25 C24.64,23.05 23.65,23.79 23.05,24.91 C22.45,26.02 20.27,27.39 18.20,27.95 C16.13,28.50 13.55,29.61 12.47,30.40 C10.52,31.83 10.52,31.86 12.59,34.17 C13.74,35.45 15.64,38.11 16.81,40.07 C18.79,43.39 18.83,43.80 17.35,45.91 C16.47,47.17 15.53,50.98 15.26,54.39 C14.77,60.50 14.81,60.62 18.38,63.76 C20.50,65.62 24.40,67.61 27.75,68.53 C37.75,71.28 37.99,71.46 38.10,76.23 C38.15,78.58 38.12,82.14 38.03,84.15 C37.94,86.15 38.36,88.10 38.96,88.48 C39.58,88.86 40.07,92.08 40.09,95.83 C40.14,109.80 40.16,110.00 41.60,110.00 C43.25,110.00 43.48,112.58 41.92,113.55 C41.28,113.95 41.12,115.29 41.54,116.86 C41.93,118.31 42.38,120.85 42.54,122.50 C42.70,124.15 43.32,129.31 43.92,133.97 C45.52,146.53 45.26,151.54 42.62,158.88 C41.31,162.52 39.69,168.11 39.03,171.31 C38.10,175.82 36.85,178.23 33.46,182.04 C27.76,188.46 27.97,188.01 22.60,205.94 C20.07,214.43 17.15,222.31 16.12,223.44 C13.09,226.78 12.00,229.60 12.00,234.11 C12.00,238.35 11.45,239.20 0.82,251.45 C0.37,251.97 0.00,195.61 0.00,126.20 ZM 142.56 157.47 C140.42,151.03 137.56,144.44 136.20,142.82 C134.00,140.21 133.71,138.88 133.56,130.69 C133.41,122.42 133.02,120.68 129.70,113.34 C127.66,108.85 126.00,104.44 126.00,103.54 C126.00,102.64 126.90,100.04 128.00,97.76 C130.37,92.86 130.46,92.00 128.60,92.00 C127.84,92.00 125.39,94.14 123.17,96.75 C119.74,100.78 118.86,101.33 117.32,100.40 C114.81,98.88 114.49,94.40 116.67,91.19 C117.67,89.71 118.49,87.40 118.49,86.05 C118.50,82.69 124.08,79.00 129.16,79.00 C131.29,79.00 133.84,78.49 134.83,77.88 C136.21,77.01 137.35,77.13 139.81,78.40 C142.47,79.78 143.00,80.63 143.00,83.53 C143.00,87.93 139.85,91.39 136.70,90.44 C134.71,89.85 134.64,89.94 136.03,91.39 C137.32,92.74 138.07,92.80 140.74,91.79 C142.49,91.13 144.12,90.80 144.36,91.05 C144.60,91.30 145.60,98.25 146.58,106.50 C148.47,122.36 148.92,160.82 147.28,166.34 C146.53,168.90 146.05,168.01 142.56,157.47 ZM 156.62 144.25 C156.30,141.64 155.78,136.35 155.45,132.50 C154.89,125.95 151.85,103.37 150.35,94.59 C149.92,92.04 150.04,90.91 150.71,91.32 C151.27,91.67 152.00,93.42 152.32,95.23 C152.64,97.03 153.83,103.68 154.96,110.00 C156.93,120.99 158.93,149.00 157.75,149.00 C157.44,149.00 156.93,146.86 156.62,144.25 ZM 55.46 133.25 C54.03,128.44 52.25,122.47 51.51,120.00 C49.22,112.33 45.00,94.34 45.03,92.37 C45.09,88.58 46.77,93.59 52.96,116.00 C56.37,128.38 59.38,139.29 59.65,140.25 C59.92,141.21 59.67,142.00 59.10,142.00 C58.53,142.00 56.89,138.06 55.46,133.25 ZM 82.81 120.59 C75.07,117.44 69.24,113.12 61.37,104.68 C55.16,98.04 46.90,84.77 48.17,83.49 C48.44,83.23 50.73,86.05 53.26,89.76 C57.63,96.14 67.32,106.47 73.18,110.97 C74.65,112.10 79.52,114.99 83.99,117.38 C90.19,120.69 91.66,121.85 90.16,122.25 C89.07,122.53 85.76,121.79 82.81,120.59 ZM 73.64 98.25 C74.11,97.29 74.56,91.32 74.64,85.00 L 74.78 73.50 L 81.14 73.85 C84.64,74.05 87.66,74.36 87.87,74.55 C88.07,74.74 87.73,76.34 87.12,78.10 C86.50,79.86 86.00,83.65 86.00,86.52 C86.00,89.40 85.74,93.07 85.41,94.69 C84.90,97.25 84.46,97.57 81.98,97.21 C80.36,96.97 78.15,97.48 76.84,98.40 C73.84,100.50 72.57,100.44 73.64,98.25 ZM 55.91 85.12 C53.39,82.03 50.52,78.26 49.55,76.75 C47.78,74.02 47.79,74.00 50.13,74.12 C57.72,74.50 58.32,75.02 60.08,82.78 C60.99,86.78 61.45,90.20 61.11,90.39 C60.78,90.58 58.43,88.21 55.91,85.12 Z" fill="rgb(236,236,236)"/>
</g>
</svg>