<?xml version="1.0" encoding="UTF-8"?>
<svg version="1.1" xmlns="http://www.w3.org/2000/svg" width="187" height="269">
<path d="M0 0 C61.71 0 123.42 0 187 0 C187 88.77 187 177.54 187 269 C125.29 269 63.58 269 0 269 C0 180.23 0 91.46 0 0 Z " fill="#010101" transform="translate(0,0)"/>
<path d="M0 0 C41.58 0 83.16 0 126 0 C126 61.71 126 123.42 126 187 C112.01925171 183.50481293 112.01925171 183.50481293 105.5 179.875 C104.7793335 179.48248047 104.05866699 179.08996094 103.31616211 178.68554688 C96.74089945 175.01726554 90.80068601 170.81297902 85 166 C83.67548828 164.90365234 83.67548828 164.90365234 82.32421875 163.78515625 C69.70953445 152.89326647 62.99756293 141.55409811 58.88525391 125.61767578 C57.72511888 121.23013897 56.38752119 117.37841885 54.1875 113.375 C51.75245759 108.91203583 51.31342439 106.06349511 52 101 C53.83405542 96.65618454 56.06784521 95.35929288 60 93 C63.29778012 88.35867984 64.97642518 83.55654903 66 78 C66.495 76.515 66.495 76.515 67 75 C67.05890971 73.33434983 67.06110065 71.6663497 67.02734375 70 C67.01509766 69.030625 67.00285156 68.06125 66.99023438 67.0625 C66.9550769 65.02076236 66.91601397 62.97908823 66.87304688 60.9375 C66.86208984 59.968125 66.85113281 58.99875 66.83984375 58 C66.82300537 57.113125 66.80616699 56.22625 66.78881836 55.3125 C67 53 67 53 69 50 C69.99 50 70.98 50 72 50 C72.33 50.66 72.66 51.32 73 52 C76.63195497 52.33785628 78.58823227 52.22875985 81.8125 50.4375 C84.59037881 47.34214932 84.76435605 45.08449505 85 41 C83.515 40.01 83.515 40.01 82 39 C81.6640625 37.046875 81.6640625 37.046875 81.625 34.75 C81.20954952 29.59010505 79.77553781 27.51811478 76 24 C71.80777404 21.43808413 66.7844063 21.13723821 62 22 C59.10387764 24.14606522 59.10387764 24.14606522 57 27 C53.21621622 30.89189189 53.21621622 30.89189189 51 32 C50.30772968 34.80980673 50.30772968 34.80980673 49.875 38.0625 C49.62363281 39.71958984 49.62363281 39.71958984 49.3671875 41.41015625 C49.18542969 42.69212891 49.18542969 42.69212891 49 44 C50.98 44.99 52.96 45.98 55 47 C54.56680729 52.41490891 53.43406135 55.75792422 50 60 C49.01 60.33 48.02 60.66 47 61 C41.16868569 53.62783726 38.10998859 48.13475782 38.1328125 38.6171875 C38.28494411 35.83803668 38.28494411 35.83803668 36 34 C32.41656024 33.83322718 32.41656024 33.83322718 29 34 C29.04447266 34.85271484 29.04447266 34.85271484 29.08984375 35.72265625 C28.89616204 38.69740867 28.50368316 40.39224262 27 43 C24.50630149 44.6400526 22.30838389 45.90372241 19.625 47.125 C18.95202881 47.43187744 18.27905762 47.73875488 17.58569336 48.05493164 C14.87494184 49.1859958 12.5842157 50.02594379 9.625 49.89453125 C6.704938 48.28709327 6.15039342 44.98056478 5 42 C4.34 41.34 3.68 40.68 3 40 C2.9375 37.5625 2.9375 37.5625 4 35 C7.5625 33.1875 7.5625 33.1875 11 32 C11.06058594 31.38511719 11.12117188 30.77023438 11.18359375 30.13671875 C11.26738281 29.32847656 11.35117188 28.52023438 11.4375 27.6875 C11.51871094 26.88699219 11.59992188 26.08648438 11.68359375 25.26171875 C12 23 12 23 13 20 C12.34 19.01 11.68 18.02 11 17 C10.23320525 14.4393533 9.52765553 11.90136692 8.875 9.3125 C8.69324219 8.61060547 8.51148437 7.90871094 8.32421875 7.18554688 C7.87772921 5.45833732 7.4381834 3.72933544 7 2 C4.69 1.67 2.38 1.34 0 1 C0 0.67 0 0.34 0 0 Z " fill="#FDFDFD" transform="translate(61,0)"/>
<path d="M0 0 C17.49 0 34.98 0 53 0 C51.35 1.32 49.7 2.64 48 4 C44.69715485 7.03504689 43.68453052 9.30270823 43.4375 13.6875 C43.60508935 18.79135747 45.37502981 22.36556378 48.00390625 26.67578125 C49.30514629 29.71200801 49.05265948 30.87392032 48 34 C46.77173358 36.58179205 45.40122706 39.07115748 44 41.5625 C39.78369219 49.10320436 37.63889431 55.17100448 39.66015625 63.82714844 C40.87626206 68.11487574 42.18706819 72.36975188 43.51171875 76.625 C46.87321945 87.90317786 46.83711602 95.3840401 42.1875 106.1875 C38.69883048 114.74344673 36.34838454 122.85626736 35 132 C35.66 132 36.32 132 37 132 C36.03720272 148.14481706 33.38968048 164.76318454 24.5402832 178.53540039 C18.64361987 188.18033034 16.13248688 199.72813366 13.01416016 210.50463867 C10.42785094 219.41850219 7.70326546 228.19415723 4.25 236.8125 C3.77626953 238.01229492 3.77626953 238.01229492 3.29296875 239.23632812 C2.53300026 241.1592787 1.76717306 243.07991237 1 245 C0.67 245 0.34 245 0 245 C0 164.15 0 83.3 0 0 Z " fill="#FDFDFD" transform="translate(0,0)"/>
<path d="M0 0 C2.99560362 2.56766024 4.5646726 5.33991513 6 9 C5.58916527 13.57827191 4.18864796 17.24256343 2.26953125 21.39453125 C1.99662766 21.98618576 1.72372406 22.57784027 1.44255066 23.18742371 C0.86529794 24.4336769 0.28436612 25.67823192 -0.30004883 26.92114258 C-1.17793238 28.79210925 -2.03988576 30.66981679 -2.90039062 32.54882812 C-5.80275285 38.80887187 -8.81135261 44.64731057 -13.0246582 50.1394043 C-14.18987252 51.96407946 -14.18987252 51.96407946 -13.84448242 54.11645508 C-13.04040738 56.35750053 -13.04040738 56.35750053 -10 58 C-8.38275348 58.29603835 -6.75588279 58.5418022 -5.125 58.75 C0.35862471 59.73832771 1.84445449 61.54511222 5 66 C7.88472963 67.80449045 10.38505652 68.32809322 13.75 68.625 C14.94882813 68.73714844 14.94882813 68.73714844 16.171875 68.8515625 C17.07679687 68.92503906 17.07679687 68.92503906 18 69 C21.5489579 79.64687369 18.89402829 90.02164355 14.60546875 99.890625 C12.33425982 104.2893654 10.64249548 107.07896739 6 109 C6 109.66 6 110.32 6 111 C13.98415544 111.81766615 13.98415544 111.81766615 21 108.75 C21.66 107.8425 22.32 106.935 23 106 C24.29579647 104.63015802 25.61992749 103.2848951 27 102 C27.66 102 28.32 102 29 102 C29 103.98 29 105.96 29 108 C29.66 108 30.32 108 31 108 C30.979375 107.195625 30.95875 106.39125 30.9375 105.5625 C31 103 31 103 32 102 C34.67058851 101.85884839 37.32432238 101.95752893 40 102 C40 101.34 40 100.68 40 100 C41.19625 100.33 42.3925 100.66 43.625 101 C50.03375105 102.45606824 56.46619456 102.16729516 63 102 C60.92766579 99.73637341 59.1082875 98.42944211 56.3125 97.1875 C46.40640804 92.34371239 41.33810422 86.68029778 37.6875 76.25 C37.07809693 73.36918547 36.82252599 70.92832117 37 68 C37.71623535 68.3290332 38.4324707 68.65806641 39.17041016 68.99707031 C42.14839993 70.05259939 44.1379465 70.18607926 47.2734375 70.046875 C48.2634375 70.00433594 49.2534375 69.96179688 50.2734375 69.91796875 C51.29695313 69.86253906 52.32046875 69.80710937 53.375 69.75 C54.89867188 69.69005859 54.89867188 69.69005859 56.453125 69.62890625 C61.89398358 69.3674624 66.91728887 69.04428602 72 67 C72.33 66.01 72.66 65.02 73 64 C75.91738501 62.5413075 77.76220682 62.58247436 81 63 C83.13508534 64.85204809 84.66127383 66.43610431 86.375 68.625 C87.0860791 69.50200562 87.0860791 69.50200562 87.81152344 70.39672852 C92.21176971 75.97577136 95.77131008 81.88981127 99.05615234 88.19433594 C100.04291811 90.08210614 101.06160209 91.95055548 102.08203125 93.8203125 C102.74421441 95.06663352 103.40443681 96.31399871 104.0625 97.5625 C104.65160156 98.67753906 105.24070313 99.79257813 105.84765625 100.94140625 C107.1176801 104.31235091 107.07103553 105.62988295 106 109 C105.67 110.32 105.34 111.64 105 113 C50.88 113 -3.24 113 -59 113 C-59 105.74 -59 98.48 -59 91 C-57.35 92.32 -55.7 93.64 -54 95 C-53.01 95.33 -52.02 95.66 -51 96 C-50.0078125 97.99609375 -50.0078125 97.99609375 -49.125 100.4375 C-47.65154033 104.02560462 -47.65154033 104.02560462 -44.8125 106.5625 C-40.85861985 107.17754802 -36.99162108 107.15653416 -33 107 C-33 106.01 -33 105.02 -33 104 C-33.969375 103.278125 -34.93875 102.55625 -35.9375 101.8125 C-38.00050088 100.23005697 -38.87623836 99.41876581 -39.62109375 96.8984375 C-39.84587587 94.94110394 -39.93325195 92.96906738 -40 91 C-38.02 91.33 -36.04 91.66 -34 92 C-33.90460937 91.06671875 -33.80921875 90.1334375 -33.7109375 89.171875 C-32.96461654 84.01218889 -31.28538977 79.17699541 -29.625 74.25 C-29.2741333 73.20432861 -28.9232666 72.15865723 -28.56176758 71.08129883 C-24.66557366 59.69793719 -20.09052286 48.61067513 -15.45849609 37.51123047 C-12.93615968 31.43887656 -10.47222342 25.34290134 -8 19.25 C-5.38444971 12.81055117 -2.76872031 6.37534283 0 0 Z " fill="#FAFAFA" transform="translate(59,156)"/>
<path d="M0 0 C0.33 0 0.66 0 1 0 C1 26.07 1 52.14 1 79 C-5.27 79 -11.54 79 -18 79 C-14 76 -14 76 -12 76 C-11.80522261 74.37585622 -11.61940542 72.75063577 -11.4375 71.125 C-11.33308594 70.22007812 -11.22867188 69.31515625 -11.12109375 68.3828125 C-10.80325148 65.98346943 -10.80325148 65.98346943 -12 64 C-12.039992 62.00039988 -12.04346799 59.99952758 -12 58 C-10.35 58.99 -8.7 59.98 -7 61 C-7.268125 60.484375 -7.53625 59.96875 -7.8125 59.4375 C-9 57 -9 57 -10.125 53.4375 C-12.11288075 49.79305196 -12.36581813 49.50798603 -16 48.25 C-16.680625 48.06953125 -17.36125 47.8890625 -18.0625 47.703125 C-21.12240328 46.59267623 -22.60408266 44.83951781 -23.9831543 41.9152832 C-24.26070557 41.13499756 -24.53825684 40.35471191 -24.82421875 39.55078125 C-25.28344727 38.27944336 -25.28344727 38.27944336 -25.75195312 36.98242188 C-26.06068359 36.10134766 -26.36941406 35.22027344 -26.6875 34.3125 C-27.00783203 33.41982422 -27.32816406 32.52714844 -27.65820312 31.60742188 C-28.44639961 29.40753019 -29.22665895 27.20514854 -30 25 C-29.38366699 24.87012695 -28.76733398 24.74025391 -28.13232422 24.60644531 C-27.3229541 24.43209961 -26.51358398 24.25775391 -25.6796875 24.078125 C-24.47675049 23.82144043 -24.47675049 23.82144043 -23.24951172 23.55957031 C-20.32623865 22.83240059 -18.3316468 21.92017971 -16 20 C-15.5875 19.05125 -15.175 18.1025 -14.75 17.125 C-12.51195545 13.12849188 -10.07808305 12.23678882 -6.09375 10.21875 C-2.54285863 8.15181324 -1.44228669 5.48769158 -0.3125 1.6875 C-0.209375 1.130625 -0.10625 0.57375 0 0 Z " fill="#FBFBFB" transform="translate(186,190)"/>
<path d="M0 0 C0.86979461 2.22414609 1.72083184 4.45272592 2.5625 6.6875 C2.80935547 7.31333984 3.05621094 7.93917969 3.31054688 8.58398438 C4.73239363 12.40895241 5.50151529 15.12399541 4 19 C0.77855813 21.14762791 -0.20671988 21.21277583 -3.88671875 20.54296875 C-8.05915785 19.47093726 -12.30075217 18.23230472 -16 16 C-16.33 14.68 -16.66 13.36 -17 12 C-12.71 10.02 -8.42 8.04 -4 6 C-4 4.35 -4 2.7 -4 1 C-2 0 -2 0 0 0 Z " fill="#F2F2F2" transform="translate(95,48)"/>
<path d="M0 0 C5.875 0.875 5.875 0.875 7 2 C7.12214381 6.2088003 6.89911344 10.41819362 6.75 14.625 C6.70939453 16.39037109 6.70939453 16.39037109 6.66796875 18.19140625 C6.44815754 24.49502455 6.0396612 29.42728781 3 35 C-1.12543163 28.81185255 -1.28809176 23.20025243 -1.1875 16 C-1.18685547 15.1234375 -1.18621094 14.246875 -1.18554688 13.34375 C-1.1546801 8.78918629 -0.92108823 4.48017317 0 0 Z " fill="#F6F6F6" transform="translate(80,96)"/>
<path d="M0 0 C1.98 0.66 3.96 1.32 6 2 C6 3.32 6 4.64 6 6 C4.02 5.34 2.04 4.68 0 4 C0 2.68 0 1.36 0 0 Z " fill="#EAEAEA" transform="translate(82,78)"/>
</svg>
